<svg width="227" height="227" viewBox="0 0 227 227" fill="none" xmlns="http://www.w3.org/2000/svg">
<g filter="url(#filter0_d_47_307)">
<circle cx="113.5" cy="94.5" r="77.5" fill="#5649CF"/>
</g>
<path fill-rule="evenodd" clip-rule="evenodd" d="M113.499 128.803C100.494 128.803 89.9151 118.421 89.9151 105.656C89.9151 92.892 100.494 82.5097 113.499 82.5097C126.5 82.5097 137.083 92.892 137.083 105.656C137.083 118.421 126.5 128.803 113.499 128.803ZM125.895 108.931L121.822 103.923L122.268 97.3783C122.319 96.6503 121.981 95.9474 121.367 95.5224C120.994 95.2657 120.561 95.1352 120.124 95.1352C119.841 95.1352 119.554 95.1899 119.288 95.3035L113.499 97.715L107.714 95.3035C107.028 95.0174 106.239 95.0973 105.635 95.5224C105.026 95.9474 104.687 96.6503 104.734 97.3783L105.18 103.923L101.107 108.931C100.652 109.486 100.519 110.231 100.747 110.909C100.974 111.586 101.536 112.1 102.239 112.281L108.319 113.842L111.655 119.355C112.427 120.635 114.571 120.635 115.338 119.355L118.675 113.842L124.759 112.281C125.458 112.1 126.02 111.582 126.251 110.909C126.483 110.235 126.346 109.49 125.895 108.931Z" fill="white"/>
<path d="M89.3791 92.0083L79.4825 75.1448C79.0494 74.4041 79.1137 73.4825 79.6411 72.8091C80.1686 72.1357 81.0562 71.8327 81.8966 72.06L94.4861 75.3805L97.835 63.0243C98.058 62.2037 98.7655 61.5934 99.6231 61.4798C99.7174 61.4714 99.816 61.4672 99.9061 61.4672C100.665 61.4672 101.377 61.8628 101.763 62.5193L111.123 78.419C101.823 79.1934 93.83 84.4666 89.3791 92.0083Z" fill="white"/>
<path d="M137.619 92.0083L147.52 75.1448C147.949 74.4041 147.889 73.4825 147.357 72.8133C146.825 72.14 145.942 71.8369 145.101 72.0642L132.512 75.3847L129.163 63.0285C128.936 62.2079 128.232 61.5976 127.371 61.484C127.281 61.4714 127.182 61.4672 127.092 61.4672C126.333 61.4672 125.621 61.8628 125.235 62.5193L115.875 78.419C125.175 79.1934 133.172 84.4666 137.619 92.0083Z" fill="white"/>
<defs>
<filter id="filter0_d_47_307" x="0.426228" y="0.483604" width="226.148" height="226.148" filterUnits="userSpaceOnUse" color-interpolation-filters="sRGB">
<feFlood flood-opacity="0" result="BackgroundImageFix"/>
<feColorMatrix in="SourceAlpha" type="matrix" values="0 0 0 0 0 0 0 0 0 0 0 0 0 0 0 0 0 0 127 0" result="hardAlpha"/>
<feOffset dy="19.0574"/>
<feGaussianBlur stdDeviation="17.7869"/>
<feComposite in2="hardAlpha" operator="out"/>
<feColorMatrix type="matrix" values="0 0 0 0 0.337255 0 0 0 0 0.286274 0 0 0 0 0.807843 0 0 0 0.19 0"/>
<feBlend mode="normal" in2="BackgroundImageFix" result="effect1_dropShadow_47_307"/>
<feBlend mode="normal" in="SourceGraphic" in2="effect1_dropShadow_47_307" result="shape"/>
</filter>
</defs>
</svg>
