<svg width="31" height="37" viewBox="0 0 31 37" fill="none" xmlns="http://www.w3.org/2000/svg">
<path d="M28.6012 16.6057C28.6568 16.1614 28.6568 15.7727 28.6568 15.3284C28.6568 11.7935 27.2525 8.40335 24.753 5.90379C22.2534 3.40424 18.8633 2 15.3284 2C11.7935 2 8.40335 3.40424 5.90379 5.90379C3.40424 8.40335 2 11.7935 2 15.3284C2 15.7727 2 16.2169 2.05554 16.6057V16.7723C3.16623 27.3239 15.3284 34.7656 15.3284 34.7656C15.3284 34.7656 27.4905 27.2129 28.5457 16.8278L28.6012 16.6057Z" stroke="#1877F3" stroke-width="2.88181" stroke-miterlimit="10" stroke-linecap="round" stroke-linejoin="round"/>
<path d="M15.3283 21.9926C19.0088 21.9926 21.9925 19.0089 21.9925 15.3284C21.9925 11.6478 19.0088 8.66418 15.3283 8.66418C11.6477 8.66418 8.66406 11.6478 8.66406 15.3284C8.66406 19.0089 11.6477 21.9926 15.3283 21.9926Z" stroke="#1877F3" stroke-width="2.88181" stroke-miterlimit="10" stroke-linecap="round" stroke-linejoin="round"/>
</svg>
