<svg width="345" height="224" viewBox="0 0 345 224" fill="none" xmlns="http://www.w3.org/2000/svg">
<rect width="345" height="224" fill="white"/>
<path d="M41.262 157.196C40.786 157.196 40.352 157.112 39.96 156.944C39.568 156.776 39.26 156.533 39.036 156.216C38.812 155.899 38.7 155.511 38.7 155.054C38.7 154.587 38.812 154.205 39.036 153.906C39.26 153.598 39.568 153.369 39.96 153.22C40.352 153.061 40.7907 152.982 41.276 152.982H43.586V152.478C43.586 151.993 43.4413 151.61 43.152 151.33C42.872 151.05 42.452 150.91 41.892 150.91C41.3413 150.91 40.912 151.045 40.604 151.316C40.296 151.577 40.086 151.932 39.974 152.38L38.938 152.044C39.05 151.661 39.2273 151.316 39.47 151.008C39.7127 150.691 40.0347 150.439 40.436 150.252C40.8467 150.056 41.3367 149.958 41.906 149.958C42.7833 149.958 43.4647 150.187 43.95 150.644C44.4353 151.092 44.678 151.727 44.678 152.548V155.642C44.678 155.922 44.8087 156.062 45.07 156.062H45.7V157H44.734C44.426 157 44.1787 156.916 43.992 156.748C43.8053 156.571 43.712 156.337 43.712 156.048V155.978H43.544C43.4413 156.155 43.3013 156.342 43.124 156.538C42.956 156.725 42.7227 156.879 42.424 157C42.1253 157.131 41.738 157.196 41.262 157.196ZM41.388 156.244C42.0413 156.244 42.5687 156.053 42.97 155.67C43.3807 155.278 43.586 154.732 43.586 154.032V153.878H41.318C40.8793 153.878 40.5153 153.976 40.226 154.172C39.946 154.359 39.806 154.643 39.806 155.026C39.806 155.409 39.9507 155.707 40.24 155.922C40.5387 156.137 40.9213 156.244 41.388 156.244ZM50.1733 157.196C49.5107 157.196 48.9133 157.056 48.3813 156.776C47.8587 156.487 47.4433 156.076 47.1353 155.544C46.8367 155.012 46.6873 154.382 46.6873 153.654V153.5C46.6873 152.763 46.8367 152.133 47.1353 151.61C47.4433 151.078 47.8587 150.672 48.3813 150.392C48.9133 150.103 49.5107 149.958 50.1733 149.958C50.8267 149.958 51.382 150.079 51.8393 150.322C52.306 150.565 52.67 150.887 52.9313 151.288C53.202 151.689 53.3747 152.119 53.4493 152.576L52.3713 152.8C52.3247 152.464 52.2127 152.156 52.0353 151.876C51.8673 151.596 51.6293 151.372 51.3213 151.204C51.0133 151.036 50.6353 150.952 50.1873 150.952C49.73 150.952 49.3193 151.055 48.9553 151.26C48.6007 151.465 48.316 151.759 48.1013 152.142C47.896 152.525 47.7933 152.982 47.7933 153.514V153.64C47.7933 154.172 47.896 154.629 48.1013 155.012C48.316 155.395 48.6007 155.689 48.9553 155.894C49.3193 156.099 49.73 156.202 50.1873 156.202C50.8687 156.202 51.3867 156.025 51.7413 155.67C52.1053 155.315 52.3293 154.877 52.4133 154.354L53.5053 154.592C53.4027 155.04 53.216 155.465 52.9453 155.866C52.6747 156.267 52.306 156.589 51.8393 156.832C51.382 157.075 50.8267 157.196 50.1733 157.196ZM58.5405 157.196C57.8778 157.196 57.2805 157.056 56.7485 156.776C56.2258 156.487 55.8105 156.076 55.5025 155.544C55.2038 155.012 55.0545 154.382 55.0545 153.654V153.5C55.0545 152.763 55.2038 152.133 55.5025 151.61C55.8105 151.078 56.2258 150.672 56.7485 150.392C57.2805 150.103 57.8778 149.958 58.5405 149.958C59.1938 149.958 59.7492 150.079 60.2065 150.322C60.6732 150.565 61.0372 150.887 61.2985 151.288C61.5692 151.689 61.7418 152.119 61.8165 152.576L60.7385 152.8C60.6918 152.464 60.5798 152.156 60.4025 151.876C60.2345 151.596 59.9965 151.372 59.6885 151.204C59.3805 151.036 59.0025 150.952 58.5545 150.952C58.0972 150.952 57.6865 151.055 57.3225 151.26C56.9678 151.465 56.6832 151.759 56.4685 152.142C56.2632 152.525 56.1605 152.982 56.1605 153.514V153.64C56.1605 154.172 56.2632 154.629 56.4685 155.012C56.6832 155.395 56.9678 155.689 57.3225 155.894C57.6865 156.099 58.0972 156.202 58.5545 156.202C59.2358 156.202 59.7538 156.025 60.1085 155.67C60.4725 155.315 60.6965 154.877 60.7805 154.354L61.8725 154.592C61.7698 155.04 61.5832 155.465 61.3125 155.866C61.0418 156.267 60.6732 156.589 60.2065 156.832C59.7492 157.075 59.1938 157.196 58.5405 157.196ZM66.8937 157.196C66.203 157.196 65.5964 157.051 65.0737 156.762C64.551 156.463 64.145 156.048 63.8557 155.516C63.5664 154.984 63.4217 154.368 63.4217 153.668V153.5C63.4217 152.791 63.5664 152.17 63.8557 151.638C64.145 151.106 64.5464 150.695 65.0597 150.406C65.573 150.107 66.161 149.958 66.8237 149.958C67.4677 149.958 68.037 150.098 68.5317 150.378C69.0264 150.649 69.4137 151.041 69.6937 151.554C69.9737 152.067 70.1137 152.669 70.1137 153.36V153.864H64.5277C64.5557 154.601 64.7937 155.18 65.2417 155.6C65.6897 156.011 66.2497 156.216 66.9217 156.216C67.5097 156.216 67.9624 156.081 68.2797 155.81C68.597 155.539 68.8397 155.217 69.0077 154.844L69.9597 155.306C69.8197 155.595 69.6237 155.885 69.3717 156.174C69.129 156.463 68.807 156.706 68.4057 156.902C68.0137 157.098 67.5097 157.196 66.8937 157.196ZM64.5417 152.954H68.9937C68.9564 152.319 68.737 151.825 68.3357 151.47C67.9437 151.115 67.4397 150.938 66.8237 150.938C66.1984 150.938 65.685 151.115 65.2837 151.47C64.8824 151.825 64.635 152.319 64.5417 152.954ZM72.0429 157V147.2H73.1489V157H72.0429ZM78.6105 157.196C77.9198 157.196 77.3132 157.051 76.7905 156.762C76.2678 156.463 75.8618 156.048 75.5725 155.516C75.2832 154.984 75.1385 154.368 75.1385 153.668V153.5C75.1385 152.791 75.2832 152.17 75.5725 151.638C75.8618 151.106 76.2632 150.695 76.7765 150.406C77.2898 150.107 77.8778 149.958 78.5405 149.958C79.1845 149.958 79.7538 150.098 80.2485 150.378C80.7432 150.649 81.1305 151.041 81.4105 151.554C81.6905 152.067 81.8305 152.669 81.8305 153.36V153.864H76.2445C76.2725 154.601 76.5105 155.18 76.9585 155.6C77.4065 156.011 77.9665 156.216 78.6385 156.216C79.2265 156.216 79.6792 156.081 79.9965 155.81C80.3138 155.539 80.5565 155.217 80.7245 154.844L81.6765 155.306C81.5365 155.595 81.3405 155.885 81.0885 156.174C80.8458 156.463 80.5238 156.706 80.1225 156.902C79.7305 157.098 79.2265 157.196 78.6105 157.196ZM76.2585 152.954H80.7105C80.6732 152.319 80.4538 151.825 80.0525 151.47C79.6605 151.115 79.1565 150.938 78.5405 150.938C77.9152 150.938 77.4018 151.115 77.0005 151.47C76.5992 151.825 76.3518 152.319 76.2585 152.954ZM83.7597 157V150.154H84.8377V150.994H85.0337C85.155 150.695 85.3417 150.476 85.5937 150.336C85.8457 150.196 86.177 150.126 86.5877 150.126H87.3997V151.134H86.5177C86.023 151.134 85.6217 151.274 85.3137 151.554C85.015 151.825 84.8657 152.249 84.8657 152.828V157H83.7597ZM90.9046 157.196C90.4286 157.196 89.9946 157.112 89.6026 156.944C89.2106 156.776 88.9026 156.533 88.6786 156.216C88.4546 155.899 88.3426 155.511 88.3426 155.054C88.3426 154.587 88.4546 154.205 88.6786 153.906C88.9026 153.598 89.2106 153.369 89.6026 153.22C89.9946 153.061 90.4332 152.982 90.9186 152.982H93.2286V152.478C93.2286 151.993 93.0839 151.61 92.7946 151.33C92.5146 151.05 92.0946 150.91 91.5346 150.91C90.9839 150.91 90.5546 151.045 90.2466 151.316C89.9386 151.577 89.7286 151.932 89.6166 152.38L88.5806 152.044C88.6926 151.661 88.8699 151.316 89.1126 151.008C89.3552 150.691 89.6772 150.439 90.0786 150.252C90.4892 150.056 90.9792 149.958 91.5486 149.958C92.4259 149.958 93.1072 150.187 93.5926 150.644C94.0779 151.092 94.3206 151.727 94.3206 152.548V155.642C94.3206 155.922 94.4512 156.062 94.7126 156.062H95.3426V157H94.3766C94.0686 157 93.8212 156.916 93.6346 156.748C93.4479 156.571 93.3546 156.337 93.3546 156.048V155.978H93.1866C93.0839 156.155 92.9439 156.342 92.7666 156.538C92.5986 156.725 92.3652 156.879 92.0666 157C91.7679 157.131 91.3806 157.196 90.9046 157.196ZM91.0306 156.244C91.6839 156.244 92.2112 156.053 92.6126 155.67C93.0232 155.278 93.2286 154.732 93.2286 154.032V153.878H90.9606C90.5219 153.878 90.1579 153.976 89.8686 154.172C89.5886 154.359 89.4486 154.643 89.4486 155.026C89.4486 155.409 89.5932 155.707 89.8826 155.922C90.1812 156.137 90.5639 156.244 91.0306 156.244ZM98.9261 157C98.5341 157 98.2308 156.893 98.0161 156.678C97.8108 156.463 97.7081 156.169 97.7081 155.796V151.12H95.6501V150.154H97.7081V147.718H98.8141V150.154H101.054V151.12H98.8141V155.628C98.8141 155.908 98.9495 156.048 99.2201 156.048H100.746V157H98.9261ZM102.846 157V150.154H103.952V157H102.846ZM103.406 149.09C103.163 149.09 102.958 149.011 102.79 148.852C102.631 148.693 102.552 148.493 102.552 148.25C102.552 147.998 102.631 147.793 102.79 147.634C102.958 147.475 103.163 147.396 103.406 147.396C103.648 147.396 103.849 147.475 104.008 147.634C104.166 147.793 104.246 147.998 104.246 148.25C104.246 148.493 104.166 148.693 104.008 148.852C103.849 149.011 103.648 149.09 103.406 149.09ZM106.277 157V150.154H107.355V151.316H107.551C107.701 150.989 107.953 150.695 108.307 150.434C108.671 150.163 109.203 150.028 109.903 150.028C110.417 150.028 110.874 150.135 111.275 150.35C111.686 150.565 112.013 150.882 112.255 151.302C112.498 151.722 112.619 152.24 112.619 152.856V157H111.513V152.94C111.513 152.259 111.341 151.764 110.995 151.456C110.659 151.148 110.202 150.994 109.623 150.994C108.961 150.994 108.419 151.209 107.999 151.638C107.589 152.067 107.383 152.707 107.383 153.556V157H106.277ZM114.527 153.612V153.416C114.527 152.697 114.672 152.081 114.961 151.568C115.251 151.055 115.643 150.658 116.137 150.378C116.632 150.098 117.173 149.958 117.761 149.958C118.48 149.958 119.031 150.098 119.413 150.378C119.805 150.649 120.095 150.952 120.281 151.288H120.477V150.154H121.527V158.596C121.527 158.969 121.425 159.263 121.219 159.478C121.014 159.693 120.715 159.8 120.323 159.8H115.675V158.82H120.029C120.309 158.82 120.449 158.68 120.449 158.4V155.796H120.253C120.141 156.001 119.983 156.202 119.777 156.398C119.572 156.594 119.306 156.757 118.979 156.888C118.653 157.009 118.247 157.07 117.761 157.07C117.173 157.07 116.632 156.93 116.137 156.65C115.643 156.37 115.251 155.973 114.961 155.46C114.672 154.937 114.527 154.321 114.527 153.612ZM118.055 156.09C118.765 156.09 119.339 155.866 119.777 155.418C120.225 154.97 120.449 154.354 120.449 153.57V153.458C120.449 152.665 120.225 152.049 119.777 151.61C119.339 151.162 118.765 150.938 118.055 150.938C117.355 150.938 116.777 151.162 116.319 151.61C115.871 152.049 115.647 152.665 115.647 153.458V153.57C115.647 154.354 115.871 154.97 116.319 155.418C116.777 155.866 117.355 156.09 118.055 156.09ZM128.267 159.8V158.82H132.187C132.458 158.82 132.593 158.68 132.593 158.4V155.908H132.397C132.304 156.104 132.159 156.3 131.963 156.496C131.777 156.683 131.529 156.837 131.221 156.958C130.913 157.07 130.526 157.126 130.059 157.126C129.565 157.126 129.107 157.019 128.687 156.804C128.277 156.589 127.95 156.272 127.707 155.852C127.474 155.432 127.357 154.919 127.357 154.312V150.154H128.463V154.228C128.463 154.9 128.631 155.39 128.967 155.698C129.313 156.006 129.775 156.16 130.353 156.16C131.007 156.16 131.543 155.945 131.963 155.516C132.383 155.087 132.593 154.447 132.593 153.598V150.154H133.699V158.596C133.699 158.969 133.592 159.263 133.377 159.478C133.172 159.693 132.869 159.8 132.467 159.8H128.267ZM139.178 157.196C138.487 157.196 137.876 157.051 137.344 156.762C136.821 156.473 136.41 156.067 136.112 155.544C135.822 155.012 135.678 154.387 135.678 153.668V153.486C135.678 152.777 135.822 152.156 136.112 151.624C136.41 151.092 136.821 150.681 137.344 150.392C137.876 150.103 138.487 149.958 139.178 149.958C139.868 149.958 140.475 150.103 140.998 150.392C141.53 150.681 141.94 151.092 142.23 151.624C142.528 152.156 142.678 152.777 142.678 153.486V153.668C142.678 154.387 142.528 155.012 142.23 155.544C141.94 156.067 141.53 156.473 140.998 156.762C140.475 157.051 139.868 157.196 139.178 157.196ZM139.178 156.202C139.906 156.202 140.484 155.973 140.914 155.516C141.352 155.049 141.572 154.424 141.572 153.64V153.514C141.572 152.73 141.352 152.109 140.914 151.652C140.484 151.185 139.906 150.952 139.178 150.952C138.459 150.952 137.88 151.185 137.442 151.652C137.003 152.109 136.784 152.73 136.784 153.514V153.64C136.784 154.424 137.003 155.049 137.442 155.516C137.88 155.973 138.459 156.202 139.178 156.202ZM147.286 157.126C146.791 157.126 146.334 157.019 145.914 156.804C145.503 156.589 145.177 156.272 144.934 155.852C144.701 155.423 144.584 154.905 144.584 154.298V150.154H145.69V154.214C145.69 154.895 145.858 155.39 146.194 155.698C146.539 156.006 147.001 156.16 147.58 156.16C148.233 156.16 148.77 155.945 149.19 155.516C149.61 155.087 149.82 154.447 149.82 153.598V150.154H150.926V157H149.848V155.838H149.652C149.503 156.165 149.246 156.463 148.882 156.734C148.518 156.995 147.986 157.126 147.286 157.126ZM153.24 157V150.154H154.318V150.994H154.514C154.635 150.695 154.822 150.476 155.074 150.336C155.326 150.196 155.657 150.126 156.068 150.126H156.88V151.134H155.998C155.503 151.134 155.102 151.274 154.794 151.554C154.495 151.825 154.346 152.249 154.346 152.828V157H153.24ZM165.907 157.196C165.198 157.196 164.643 157.061 164.241 156.79C163.849 156.519 163.565 156.211 163.387 155.866H163.191V157H162.113V147.2H163.219V151.232H163.415C163.527 151.017 163.686 150.817 163.891 150.63C164.097 150.434 164.363 150.275 164.689 150.154C165.025 150.023 165.431 149.958 165.907 149.958C166.505 149.958 167.046 150.103 167.531 150.392C168.026 150.672 168.418 151.078 168.707 151.61C168.997 152.133 169.141 152.758 169.141 153.486V153.668C169.141 154.396 168.992 155.026 168.693 155.558C168.404 156.09 168.012 156.496 167.517 156.776C167.032 157.056 166.495 157.196 165.907 157.196ZM165.613 156.216C166.323 156.216 166.897 155.992 167.335 155.544C167.783 155.087 168.007 154.452 168.007 153.64V153.514C168.007 152.702 167.783 152.072 167.335 151.624C166.897 151.167 166.323 150.938 165.613 150.938C164.913 150.938 164.335 151.167 163.877 151.624C163.429 152.072 163.205 152.702 163.205 153.514V153.64C163.205 154.452 163.429 155.087 163.877 155.544C164.335 155.992 164.913 156.216 165.613 156.216ZM173.741 157.126C173.246 157.126 172.789 157.019 172.369 156.804C171.958 156.589 171.632 156.272 171.389 155.852C171.156 155.423 171.039 154.905 171.039 154.298V150.154H172.145V154.214C172.145 154.895 172.313 155.39 172.649 155.698C172.994 156.006 173.456 156.16 174.035 156.16C174.688 156.16 175.225 155.945 175.645 155.516C176.065 155.087 176.275 154.447 176.275 153.598V150.154H177.381V157H176.303V155.838H176.107C175.958 156.165 175.701 156.463 175.337 156.734C174.973 156.995 174.441 157.126 173.741 157.126ZM182.453 157.196C181.604 157.196 180.885 157 180.297 156.608C179.719 156.216 179.369 155.595 179.247 154.746L180.297 154.508C180.372 154.956 180.512 155.311 180.717 155.572C180.923 155.824 181.175 156.006 181.473 156.118C181.781 156.221 182.108 156.272 182.453 156.272C182.967 156.272 183.373 156.169 183.671 155.964C183.97 155.759 184.119 155.483 184.119 155.138C184.119 154.783 183.975 154.536 183.685 154.396C183.405 154.247 183.018 154.125 182.523 154.032L181.949 153.934C181.511 153.859 181.109 153.743 180.745 153.584C180.381 153.425 180.092 153.211 179.877 152.94C179.663 152.669 179.555 152.329 179.555 151.918C179.555 151.302 179.793 150.821 180.269 150.476C180.745 150.131 181.375 149.958 182.159 149.958C182.934 149.958 183.559 150.135 184.035 150.49C184.521 150.835 184.833 151.325 184.973 151.96L183.937 152.226C183.853 151.731 183.653 151.386 183.335 151.19C183.018 150.985 182.626 150.882 182.159 150.882C181.693 150.882 181.324 150.971 181.053 151.148C180.783 151.316 180.647 151.568 180.647 151.904C180.647 152.231 180.773 152.473 181.025 152.632C181.287 152.781 181.632 152.893 182.061 152.968L182.635 153.066C183.121 153.15 183.555 153.267 183.937 153.416C184.329 153.556 184.637 153.761 184.861 154.032C185.095 154.303 185.211 154.657 185.211 155.096C185.211 155.768 184.959 156.286 184.455 156.65C183.961 157.014 183.293 157.196 182.453 157.196ZM187.078 157V150.154H188.184V157H187.078ZM187.638 149.09C187.395 149.09 187.19 149.011 187.022 148.852C186.863 148.693 186.784 148.493 186.784 148.25C186.784 147.998 186.863 147.793 187.022 147.634C187.19 147.475 187.395 147.396 187.638 147.396C187.881 147.396 188.081 147.475 188.24 147.634C188.399 147.793 188.478 147.998 188.478 148.25C188.478 148.493 188.399 148.693 188.24 148.852C188.081 149.011 187.881 149.09 187.638 149.09ZM190.51 157V150.154H191.588V151.316H191.784C191.933 150.989 192.185 150.695 192.54 150.434C192.904 150.163 193.436 150.028 194.136 150.028C194.649 150.028 195.106 150.135 195.508 150.35C195.918 150.565 196.245 150.882 196.488 151.302C196.73 151.722 196.852 152.24 196.852 152.856V157H195.746V152.94C195.746 152.259 195.573 151.764 195.228 151.456C194.892 151.148 194.434 150.994 193.856 150.994C193.193 150.994 192.652 151.209 192.232 151.638C191.821 152.067 191.616 152.707 191.616 153.556V157H190.51ZM202.232 157.196C201.541 157.196 200.934 157.051 200.412 156.762C199.889 156.463 199.483 156.048 199.194 155.516C198.904 154.984 198.76 154.368 198.76 153.668V153.5C198.76 152.791 198.904 152.17 199.194 151.638C199.483 151.106 199.884 150.695 200.398 150.406C200.911 150.107 201.499 149.958 202.162 149.958C202.806 149.958 203.375 150.098 203.87 150.378C204.364 150.649 204.752 151.041 205.032 151.554C205.312 152.067 205.452 152.669 205.452 153.36V153.864H199.866C199.894 154.601 200.132 155.18 200.58 155.6C201.028 156.011 201.588 156.216 202.26 156.216C202.848 156.216 203.3 156.081 203.618 155.81C203.935 155.539 204.178 155.217 204.346 154.844L205.298 155.306C205.158 155.595 204.962 155.885 204.71 156.174C204.467 156.463 204.145 156.706 203.744 156.902C203.352 157.098 202.848 157.196 202.232 157.196ZM199.88 152.954H204.332C204.294 152.319 204.075 151.825 203.674 151.47C203.282 151.115 202.778 150.938 202.162 150.938C201.536 150.938 201.023 151.115 200.622 151.47C200.22 151.825 199.973 152.319 199.88 152.954ZM210.139 157.196C209.289 157.196 208.571 157 207.983 156.608C207.404 156.216 207.054 155.595 206.933 154.746L207.983 154.508C208.057 154.956 208.197 155.311 208.403 155.572C208.608 155.824 208.86 156.006 209.159 156.118C209.467 156.221 209.793 156.272 210.139 156.272C210.652 156.272 211.058 156.169 211.357 155.964C211.655 155.759 211.805 155.483 211.805 155.138C211.805 154.783 211.66 154.536 211.371 154.396C211.091 154.247 210.703 154.125 210.209 154.032L209.635 153.934C209.196 153.859 208.795 153.743 208.431 153.584C208.067 153.425 207.777 153.211 207.563 152.94C207.348 152.669 207.241 152.329 207.241 151.918C207.241 151.302 207.479 150.821 207.955 150.476C208.431 150.131 209.061 149.958 209.845 149.958C210.619 149.958 211.245 150.135 211.721 150.49C212.206 150.835 212.519 151.325 212.659 151.96L211.623 152.226C211.539 151.731 211.338 151.386 211.021 151.19C210.703 150.985 210.311 150.882 209.845 150.882C209.378 150.882 209.009 150.971 208.739 151.148C208.468 151.316 208.333 151.568 208.333 151.904C208.333 152.231 208.459 152.473 208.711 152.632C208.972 152.781 209.317 152.893 209.747 152.968L210.321 153.066C210.806 153.15 211.24 153.267 211.623 153.416C212.015 153.556 212.323 153.761 212.547 154.032C212.78 154.303 212.897 154.657 212.897 155.096C212.897 155.768 212.645 156.286 212.141 156.65C211.646 157.014 210.979 157.196 210.139 157.196ZM217.522 157.196C216.672 157.196 215.954 157 215.366 156.608C214.787 156.216 214.437 155.595 214.316 154.746L215.366 154.508C215.44 154.956 215.58 155.311 215.786 155.572C215.991 155.824 216.243 156.006 216.542 156.118C216.85 156.221 217.176 156.272 217.522 156.272C218.035 156.272 218.441 156.169 218.74 155.964C219.038 155.759 219.188 155.483 219.188 155.138C219.188 154.783 219.043 154.536 218.754 154.396C218.474 154.247 218.086 154.125 217.592 154.032L217.018 153.934C216.579 153.859 216.178 153.743 215.814 153.584C215.45 153.425 215.16 153.211 214.946 152.94C214.731 152.669 214.624 152.329 214.624 151.918C214.624 151.302 214.862 150.821 215.338 150.476C215.814 150.131 216.444 149.958 217.228 149.958C218.002 149.958 218.628 150.135 219.104 150.49C219.589 150.835 219.902 151.325 220.042 151.96L219.006 152.226C218.922 151.731 218.721 151.386 218.404 151.19C218.086 150.985 217.694 150.882 217.228 150.882C216.761 150.882 216.392 150.971 216.122 151.148C215.851 151.316 215.716 151.568 215.716 151.904C215.716 152.231 215.842 152.473 216.094 152.632C216.355 152.781 216.7 152.893 217.13 152.968L217.704 153.066C218.189 153.15 218.623 153.267 219.006 153.416C219.398 153.556 219.706 153.761 219.93 154.032C220.163 154.303 220.28 154.657 220.28 155.096C220.28 155.768 220.028 156.286 219.524 156.65C219.029 157.014 218.362 157.196 217.522 157.196ZM227.842 157.196C227.366 157.196 226.932 157.112 226.54 156.944C226.148 156.776 225.84 156.533 225.616 156.216C225.392 155.899 225.28 155.511 225.28 155.054C225.28 154.587 225.392 154.205 225.616 153.906C225.84 153.598 226.148 153.369 226.54 153.22C226.932 153.061 227.371 152.982 227.856 152.982H230.166V152.478C230.166 151.993 230.021 151.61 229.732 151.33C229.452 151.05 229.032 150.91 228.472 150.91C227.921 150.91 227.492 151.045 227.184 151.316C226.876 151.577 226.666 151.932 226.554 152.38L225.518 152.044C225.63 151.661 225.807 151.316 226.05 151.008C226.293 150.691 226.615 150.439 227.016 150.252C227.427 150.056 227.917 149.958 228.486 149.958C229.363 149.958 230.045 150.187 230.53 150.644C231.015 151.092 231.258 151.727 231.258 152.548V155.642C231.258 155.922 231.389 156.062 231.65 156.062H232.28V157H231.314C231.006 157 230.759 156.916 230.572 156.748C230.385 156.571 230.292 156.337 230.292 156.048V155.978H230.124C230.021 156.155 229.881 156.342 229.704 156.538C229.536 156.725 229.303 156.879 229.004 157C228.705 157.131 228.318 157.196 227.842 157.196ZM227.968 156.244C228.621 156.244 229.149 156.053 229.55 155.67C229.961 155.278 230.166 154.732 230.166 154.032V153.878H227.898C227.459 153.878 227.095 153.976 226.806 154.172C226.526 154.359 226.386 154.643 226.386 155.026C226.386 155.409 226.531 155.707 226.82 155.922C227.119 156.137 227.501 156.244 227.968 156.244ZM233.795 157V150.154H234.873V151.316H235.069C235.218 150.989 235.47 150.695 235.825 150.434C236.189 150.163 236.721 150.028 237.421 150.028C237.934 150.028 238.391 150.135 238.793 150.35C239.203 150.565 239.53 150.882 239.773 151.302C240.015 151.722 240.137 152.24 240.137 152.856V157H239.031V152.94C239.031 152.259 238.858 151.764 238.513 151.456C238.177 151.148 237.719 150.994 237.141 150.994C236.478 150.994 235.937 151.209 235.517 151.638C235.106 152.067 234.901 152.707 234.901 153.556V157H233.795ZM245.279 157.196C244.691 157.196 244.149 157.056 243.655 156.776C243.16 156.496 242.768 156.09 242.479 155.558C242.189 155.026 242.045 154.396 242.045 153.668V153.486C242.045 152.758 242.189 152.133 242.479 151.61C242.768 151.078 243.155 150.672 243.641 150.392C244.135 150.103 244.681 149.958 245.279 149.958C245.755 149.958 246.156 150.023 246.483 150.154C246.819 150.275 247.089 150.434 247.295 150.63C247.5 150.817 247.659 151.017 247.771 151.232H247.967V147.2H249.073V157H247.995V155.866H247.799C247.612 156.211 247.323 156.519 246.931 156.79C246.539 157.061 245.988 157.196 245.279 157.196ZM245.573 156.216C246.282 156.216 246.856 155.992 247.295 155.544C247.743 155.087 247.967 154.452 247.967 153.64V153.514C247.967 152.702 247.743 152.072 247.295 151.624C246.856 151.167 246.282 150.938 245.573 150.938C244.873 150.938 244.294 151.167 243.837 151.624C243.389 152.072 243.165 152.702 243.165 153.514V153.64C243.165 154.452 243.389 155.087 243.837 155.544C244.294 155.992 244.873 156.216 245.573 156.216ZM39.162 179V172.154H40.24V172.994H40.436C40.5573 172.695 40.744 172.476 40.996 172.336C41.248 172.196 41.5793 172.126 41.99 172.126H42.802V173.134H41.92C41.4253 173.134 41.024 173.274 40.716 173.554C40.4173 173.825 40.268 174.249 40.268 174.828V179H39.162ZM46.3069 179.196C45.8309 179.196 45.3969 179.112 45.0049 178.944C44.6129 178.776 44.3049 178.533 44.0809 178.216C43.8569 177.899 43.7449 177.511 43.7449 177.054C43.7449 176.587 43.8569 176.205 44.0809 175.906C44.3049 175.598 44.6129 175.369 45.0049 175.22C45.3969 175.061 45.8356 174.982 46.3209 174.982H48.6309V174.478C48.6309 173.993 48.4863 173.61 48.1969 173.33C47.9169 173.05 47.4969 172.91 46.9369 172.91C46.3863 172.91 45.9569 173.045 45.6489 173.316C45.3409 173.577 45.1309 173.932 45.0189 174.38L43.9829 174.044C44.0949 173.661 44.2723 173.316 44.5149 173.008C44.7576 172.691 45.0796 172.439 45.4809 172.252C45.8916 172.056 46.3816 171.958 46.9509 171.958C47.8283 171.958 48.5096 172.187 48.9949 172.644C49.4803 173.092 49.7229 173.727 49.7229 174.548V177.642C49.7229 177.922 49.8536 178.062 50.1149 178.062H50.7449V179H49.7789C49.4709 179 49.2236 178.916 49.0369 178.748C48.8503 178.571 48.7569 178.337 48.7569 178.048V177.978H48.5889C48.4863 178.155 48.3463 178.342 48.1689 178.538C48.0009 178.725 47.7676 178.879 47.4689 179C47.1703 179.131 46.7829 179.196 46.3069 179.196ZM46.4329 178.244C47.0863 178.244 47.6136 178.053 48.0149 177.67C48.4256 177.278 48.6309 176.732 48.6309 176.032V175.878H46.3629C45.9243 175.878 45.5603 175.976 45.2709 176.172C44.9909 176.359 44.8509 176.643 44.8509 177.026C44.8509 177.409 44.9956 177.707 45.2849 177.922C45.5836 178.137 45.9663 178.244 46.4329 178.244ZM52.2597 179V172.154H53.3657V179H52.2597ZM52.8197 171.09C52.577 171.09 52.3717 171.011 52.2037 170.852C52.045 170.693 51.9657 170.493 51.9657 170.25C51.9657 169.998 52.045 169.793 52.2037 169.634C52.3717 169.475 52.577 169.396 52.8197 169.396C53.0623 169.396 53.263 169.475 53.4217 169.634C53.5803 169.793 53.6597 169.998 53.6597 170.25C53.6597 170.493 53.5803 170.693 53.4217 170.852C53.263 171.011 53.0623 171.09 52.8197 171.09ZM58.4493 179.196C57.6 179.196 56.8813 179 56.2933 178.608C55.7146 178.216 55.3646 177.595 55.2433 176.746L56.2933 176.508C56.368 176.956 56.508 177.311 56.7133 177.572C56.9186 177.824 57.1706 178.006 57.4693 178.118C57.7773 178.221 58.104 178.272 58.4493 178.272C58.9626 178.272 59.3686 178.169 59.6673 177.964C59.966 177.759 60.1153 177.483 60.1153 177.138C60.1153 176.783 59.9706 176.536 59.6813 176.396C59.4013 176.247 59.014 176.125 58.5193 176.032L57.9453 175.934C57.5066 175.859 57.1053 175.743 56.7413 175.584C56.3773 175.425 56.088 175.211 55.8733 174.94C55.6586 174.669 55.5513 174.329 55.5513 173.918C55.5513 173.302 55.7893 172.821 56.2653 172.476C56.7413 172.131 57.3713 171.958 58.1553 171.958C58.93 171.958 59.5553 172.135 60.0313 172.49C60.5166 172.835 60.8293 173.325 60.9693 173.96L59.9333 174.226C59.8493 173.731 59.6486 173.386 59.3313 173.19C59.014 172.985 58.622 172.882 58.1553 172.882C57.6886 172.882 57.32 172.971 57.0493 173.148C56.7786 173.316 56.6433 173.568 56.6433 173.904C56.6433 174.231 56.7693 174.473 57.0213 174.632C57.2826 174.781 57.628 174.893 58.0573 174.968L58.6313 175.066C59.1166 175.15 59.5506 175.267 59.9333 175.416C60.3253 175.556 60.6333 175.761 60.8573 176.032C61.0906 176.303 61.2073 176.657 61.2073 177.096C61.2073 177.768 60.9553 178.286 60.4513 178.65C59.9566 179.014 59.2893 179.196 58.4493 179.196ZM63.0741 179V172.154H64.1801V179H63.0741ZM63.6341 171.09C63.3914 171.09 63.1861 171.011 63.0181 170.852C62.8594 170.693 62.7801 170.493 62.7801 170.25C62.7801 169.998 62.8594 169.793 63.0181 169.634C63.1861 169.475 63.3914 169.396 63.6341 169.396C63.8768 169.396 64.0774 169.475 64.2361 169.634C64.3948 169.793 64.4741 169.998 64.4741 170.25C64.4741 170.493 64.3948 170.693 64.2361 170.852C64.0774 171.011 63.8768 171.09 63.6341 171.09ZM66.5058 179V172.154H67.5838V173.316H67.7798C67.9291 172.989 68.1811 172.695 68.5358 172.434C68.8998 172.163 69.4318 172.028 70.1318 172.028C70.6451 172.028 71.1024 172.135 71.5038 172.35C71.9144 172.565 72.2411 172.882 72.4838 173.302C72.7264 173.722 72.8478 174.24 72.8478 174.856V179H71.7418V174.94C71.7418 174.259 71.5691 173.764 71.2238 173.456C70.8878 173.148 70.4304 172.994 69.8518 172.994C69.1891 172.994 68.6478 173.209 68.2278 173.638C67.8171 174.067 67.6118 174.707 67.6118 175.556V179H66.5058ZM74.7557 175.612V175.416C74.7557 174.697 74.9004 174.081 75.1897 173.568C75.479 173.055 75.871 172.658 76.3657 172.378C76.8604 172.098 77.4017 171.958 77.9897 171.958C78.7084 171.958 79.259 172.098 79.6417 172.378C80.0337 172.649 80.323 172.952 80.5097 173.288H80.7057V172.154H81.7557V180.596C81.7557 180.969 81.653 181.263 81.4477 181.478C81.2424 181.693 80.9437 181.8 80.5517 181.8H75.9037V180.82H80.2577C80.5377 180.82 80.6777 180.68 80.6777 180.4V177.796H80.4817C80.3697 178.001 80.211 178.202 80.0057 178.398C79.8004 178.594 79.5344 178.757 79.2077 178.888C78.881 179.009 78.475 179.07 77.9897 179.07C77.4017 179.07 76.8604 178.93 76.3657 178.65C75.871 178.37 75.479 177.973 75.1897 177.46C74.9004 176.937 74.7557 176.321 74.7557 175.612ZM78.2837 178.09C78.993 178.09 79.567 177.866 80.0057 177.418C80.4537 176.97 80.6777 176.354 80.6777 175.57V175.458C80.6777 174.665 80.4537 174.049 80.0057 173.61C79.567 173.162 78.993 172.938 78.2837 172.938C77.5837 172.938 77.005 173.162 76.5477 173.61C76.0997 174.049 75.8757 174.665 75.8757 175.458V175.57C75.8757 176.354 76.0997 176.97 76.5477 177.418C77.005 177.866 77.5837 178.09 78.2837 178.09ZM90.1898 179C89.7978 179 89.4945 178.893 89.2798 178.678C89.0745 178.463 88.9718 178.169 88.9718 177.796V173.12H86.9138V172.154H88.9718V169.718H90.0778V172.154H92.3178V173.12H90.0778V177.628C90.0778 177.908 90.2131 178.048 90.4838 178.048H92.0098V179H90.1898ZM94.1093 179V169.2H95.2153V173.246H95.4113C95.5046 173.041 95.6446 172.849 95.8313 172.672C96.0273 172.485 96.2746 172.331 96.5733 172.21C96.8813 172.089 97.2686 172.028 97.7353 172.028C98.2486 172.028 98.7059 172.14 99.1073 172.364C99.5179 172.579 99.8446 172.896 100.087 173.316C100.33 173.727 100.451 174.24 100.451 174.856V179H99.3453V174.94C99.3453 174.259 99.1726 173.764 98.8273 173.456C98.4913 173.148 98.0339 172.994 97.4553 172.994C96.7926 172.994 96.2513 173.209 95.8313 173.638C95.4206 174.067 95.2153 174.707 95.2153 175.556V179H94.1093ZM105.831 179.196C105.141 179.196 104.534 179.051 104.011 178.762C103.489 178.463 103.083 178.048 102.793 177.516C102.504 176.984 102.359 176.368 102.359 175.668V175.5C102.359 174.791 102.504 174.17 102.793 173.638C103.083 173.106 103.484 172.695 103.997 172.406C104.511 172.107 105.099 171.958 105.761 171.958C106.405 171.958 106.975 172.098 107.469 172.378C107.964 172.649 108.351 173.041 108.631 173.554C108.911 174.067 109.051 174.669 109.051 175.36V175.864H103.465C103.493 176.601 103.731 177.18 104.179 177.6C104.627 178.011 105.187 178.216 105.859 178.216C106.447 178.216 106.9 178.081 107.217 177.81C107.535 177.539 107.777 177.217 107.945 176.844L108.897 177.306C108.757 177.595 108.561 177.885 108.309 178.174C108.067 178.463 107.745 178.706 107.343 178.902C106.951 179.098 106.447 179.196 105.831 179.196ZM103.479 174.954H107.931C107.894 174.319 107.675 173.825 107.273 173.47C106.881 173.115 106.377 172.938 105.761 172.938C105.136 172.938 104.623 173.115 104.221 173.47C103.82 173.825 103.573 174.319 103.479 174.954ZM118.37 179.196C117.661 179.196 117.105 179.061 116.704 178.79C116.312 178.519 116.027 178.211 115.85 177.866H115.654V179H114.576V169.2H115.682V173.232H115.878C115.99 173.017 116.149 172.817 116.354 172.63C116.559 172.434 116.825 172.275 117.152 172.154C117.488 172.023 117.894 171.958 118.37 171.958C118.967 171.958 119.509 172.103 119.994 172.392C120.489 172.672 120.881 173.078 121.17 173.61C121.459 174.133 121.604 174.758 121.604 175.486V175.668C121.604 176.396 121.455 177.026 121.156 177.558C120.867 178.09 120.475 178.496 119.98 178.776C119.495 179.056 118.958 179.196 118.37 179.196ZM118.076 178.216C118.785 178.216 119.359 177.992 119.798 177.544C120.246 177.087 120.47 176.452 120.47 175.64V175.514C120.47 174.702 120.246 174.072 119.798 173.624C119.359 173.167 118.785 172.938 118.076 172.938C117.376 172.938 116.797 173.167 116.34 173.624C115.892 174.072 115.668 174.702 115.668 175.514V175.64C115.668 176.452 115.892 177.087 116.34 177.544C116.797 177.992 117.376 178.216 118.076 178.216ZM125.686 179.196C125.21 179.196 124.776 179.112 124.384 178.944C123.992 178.776 123.684 178.533 123.46 178.216C123.236 177.899 123.124 177.511 123.124 177.054C123.124 176.587 123.236 176.205 123.46 175.906C123.684 175.598 123.992 175.369 124.384 175.22C124.776 175.061 125.214 174.982 125.7 174.982H128.01V174.478C128.01 173.993 127.865 173.61 127.576 173.33C127.296 173.05 126.876 172.91 126.316 172.91C125.765 172.91 125.336 173.045 125.028 173.316C124.72 173.577 124.51 173.932 124.398 174.38L123.362 174.044C123.474 173.661 123.651 173.316 123.894 173.008C124.136 172.691 124.458 172.439 124.86 172.252C125.27 172.056 125.76 171.958 126.33 171.958C127.207 171.958 127.888 172.187 128.374 172.644C128.859 173.092 129.102 173.727 129.102 174.548V177.642C129.102 177.922 129.232 178.062 129.494 178.062H130.124V179H129.158C128.85 179 128.602 178.916 128.416 178.748C128.229 178.571 128.136 178.337 128.136 178.048V177.978H127.968C127.865 178.155 127.725 178.342 127.548 178.538C127.38 178.725 127.146 178.879 126.848 179C126.549 179.131 126.162 179.196 125.686 179.196ZM125.812 178.244C126.465 178.244 126.992 178.053 127.394 177.67C127.804 177.278 128.01 176.732 128.01 176.032V175.878H125.742C125.303 175.878 124.939 175.976 124.65 176.172C124.37 176.359 124.23 176.643 124.23 177.026C124.23 177.409 124.374 177.707 124.664 177.922C124.962 178.137 125.345 178.244 125.812 178.244ZM131.639 179V172.154H132.717V172.994H132.913C133.034 172.695 133.221 172.476 133.473 172.336C133.725 172.196 134.056 172.126 134.467 172.126H135.279V173.134H134.397C133.902 173.134 133.501 173.274 133.193 173.554C132.894 173.825 132.745 174.249 132.745 174.828V179H131.639ZM136.629 179.196C136.359 179.196 136.13 179.107 135.943 178.93C135.766 178.753 135.677 178.524 135.677 178.244C135.677 177.964 135.766 177.735 135.943 177.558C136.13 177.381 136.359 177.292 136.629 177.292C136.909 177.292 137.138 177.381 137.315 177.558C137.493 177.735 137.581 177.964 137.581 178.244C137.581 178.524 137.493 178.753 137.315 178.93C137.138 179.107 136.909 179.196 136.629 179.196Z" fill="#242426"/>
<path d="M39.314 126V113.4H41.258V124.236H47.324V126H39.314ZM53.2819 126.252C52.3939 126.252 51.6019 126.072 50.9059 125.712C50.2219 125.34 49.6819 124.812 49.2859 124.128C48.8899 123.444 48.6919 122.634 48.6919 121.698V121.428C48.6919 120.492 48.8899 119.688 49.2859 119.016C49.6819 118.332 50.2219 117.804 50.9059 117.432C51.6019 117.06 52.3939 116.874 53.2819 116.874C54.1699 116.874 54.9619 117.06 55.6579 117.432C56.3539 117.804 56.8999 118.332 57.2959 119.016C57.6919 119.688 57.8899 120.492 57.8899 121.428V121.698C57.8899 122.634 57.6919 123.444 57.2959 124.128C56.8999 124.812 56.3539 125.34 55.6579 125.712C54.9619 126.072 54.1699 126.252 53.2819 126.252ZM53.2819 124.596C54.0979 124.596 54.7579 124.338 55.2619 123.822C55.7779 123.294 56.0359 122.568 56.0359 121.644V121.482C56.0359 120.558 55.7839 119.838 55.2799 119.322C54.7759 118.794 54.1099 118.53 53.2819 118.53C52.4779 118.53 51.8179 118.794 51.3019 119.322C50.7979 119.838 50.5459 120.558 50.5459 121.482V121.644C50.5459 122.568 50.7979 123.294 51.3019 123.822C51.8179 124.338 52.4779 124.596 53.2819 124.596ZM64.3201 126.252C63.4681 126.252 62.6941 126.072 61.9981 125.712C61.3141 125.352 60.7681 124.83 60.3601 124.146C59.9641 123.462 59.7661 122.64 59.7661 121.68V121.446C59.7661 120.486 59.9641 119.67 60.3601 118.998C60.7681 118.314 61.3141 117.792 61.9981 117.432C62.6941 117.06 63.4681 116.874 64.3201 116.874C65.1721 116.874 65.8981 117.03 66.4981 117.342C67.0981 117.654 67.5781 118.068 67.9381 118.584C68.3101 119.1 68.5501 119.67 68.6581 120.294L66.8581 120.672C66.7981 120.276 66.6721 119.916 66.4801 119.592C66.2881 119.268 66.0181 119.01 65.6701 118.818C65.3221 118.626 64.8841 118.53 64.3561 118.53C63.8401 118.53 63.3721 118.65 62.9521 118.89C62.5441 119.118 62.2201 119.454 61.9801 119.898C61.7401 120.33 61.6201 120.858 61.6201 121.482V121.644C61.6201 122.268 61.7401 122.802 61.9801 123.246C62.2201 123.69 62.5441 124.026 62.9521 124.254C63.3721 124.482 63.8401 124.596 64.3561 124.596C65.1361 124.596 65.7301 124.398 66.1381 124.002C66.5461 123.594 66.8041 123.078 66.9121 122.454L68.7121 122.868C68.5681 123.48 68.3101 124.044 67.9381 124.56C67.5781 125.076 67.0981 125.49 66.4981 125.802C65.8981 126.102 65.1721 126.252 64.3201 126.252ZM73.6044 126.252C72.9684 126.252 72.3984 126.144 71.8944 125.928C71.4024 125.712 71.0064 125.394 70.7064 124.974C70.4184 124.554 70.2744 124.044 70.2744 123.444C70.2744 122.832 70.4184 122.328 70.7064 121.932C71.0064 121.524 71.4084 121.218 71.9124 121.014C72.4284 120.81 73.0104 120.708 73.6584 120.708H76.3584V120.132C76.3584 119.616 76.2024 119.202 75.8904 118.89C75.5784 118.578 75.0984 118.422 74.4504 118.422C73.8144 118.422 73.3284 118.572 72.9924 118.872C72.6564 119.172 72.4344 119.562 72.3264 120.042L70.5984 119.484C70.7424 119.004 70.9704 118.572 71.2824 118.188C71.6064 117.792 72.0324 117.474 72.5604 117.234C73.0884 116.994 73.7244 116.874 74.4684 116.874C75.6204 116.874 76.5264 117.168 77.1864 117.756C77.8464 118.344 78.1764 119.178 78.1764 120.258V123.912C78.1764 124.272 78.3444 124.452 78.6804 124.452H79.4364V126H78.0504C77.6304 126 77.2884 125.892 77.0244 125.676C76.7604 125.46 76.6284 125.166 76.6284 124.794V124.74H76.3584C76.2624 124.92 76.1184 125.13 75.9264 125.37C75.7344 125.61 75.4524 125.82 75.0804 126C74.7084 126.168 74.2164 126.252 73.6044 126.252ZM73.8744 124.722C74.6184 124.722 75.2184 124.512 75.6744 124.092C76.1304 123.66 76.3584 123.072 76.3584 122.328V122.148H73.7664C73.2744 122.148 72.8784 122.256 72.5784 122.472C72.2784 122.676 72.1284 122.982 72.1284 123.39C72.1284 123.798 72.2844 124.122 72.5964 124.362C72.9084 124.602 73.3344 124.722 73.8744 124.722ZM83.9539 126C83.4139 126 82.9819 125.838 82.6579 125.514C82.3459 125.19 82.1899 124.758 82.1899 124.218V118.692H79.7419V117.126H82.1899V114.192H84.0439V117.126H86.6899V118.692H84.0439V123.894C84.0439 124.254 84.2119 124.434 84.5479 124.434H86.4019V126H83.9539ZM88.868 126V117.126H90.722V126H88.868ZM89.804 115.92C89.444 115.92 89.138 115.806 88.886 115.578C88.646 115.338 88.526 115.032 88.526 114.66C88.526 114.288 88.646 113.988 88.886 113.76C89.138 113.52 89.444 113.4 89.804 113.4C90.176 113.4 90.482 113.52 90.722 113.76C90.962 113.988 91.082 114.288 91.082 114.66C91.082 115.032 90.962 115.338 90.722 115.578C90.482 115.806 90.176 115.92 89.804 115.92ZM97.6315 126.252C96.7435 126.252 95.9515 126.072 95.2555 125.712C94.5715 125.34 94.0315 124.812 93.6355 124.128C93.2395 123.444 93.0415 122.634 93.0415 121.698V121.428C93.0415 120.492 93.2395 119.688 93.6355 119.016C94.0315 118.332 94.5715 117.804 95.2555 117.432C95.9515 117.06 96.7435 116.874 97.6315 116.874C98.5195 116.874 99.3115 117.06 100.007 117.432C100.703 117.804 101.249 118.332 101.645 119.016C102.041 119.688 102.239 120.492 102.239 121.428V121.698C102.239 122.634 102.041 123.444 101.645 124.128C101.249 124.812 100.703 125.34 100.007 125.712C99.3115 126.072 98.5195 126.252 97.6315 126.252ZM97.6315 124.596C98.4475 124.596 99.1075 124.338 99.6115 123.822C100.127 123.294 100.385 122.568 100.385 121.644V121.482C100.385 120.558 100.133 119.838 99.6295 119.322C99.1255 118.794 98.4595 118.53 97.6315 118.53C96.8275 118.53 96.1675 118.794 95.6515 119.322C95.1475 119.838 94.8955 120.558 94.8955 121.482V121.644C94.8955 122.568 95.1475 123.294 95.6515 123.822C96.1675 124.338 96.8275 124.596 97.6315 124.596ZM104.548 126V117.126H106.366V118.458H106.654C106.822 118.098 107.122 117.762 107.554 117.45C107.986 117.138 108.628 116.982 109.48 116.982C110.152 116.982 110.746 117.132 111.262 117.432C111.79 117.732 112.204 118.158 112.504 118.71C112.804 119.25 112.954 119.904 112.954 120.672V126H111.1V120.816C111.1 120.048 110.908 119.484 110.524 119.124C110.14 118.752 109.612 118.566 108.94 118.566C108.172 118.566 107.554 118.818 107.086 119.322C106.63 119.826 106.402 120.558 106.402 121.518V126H104.548ZM122.652 126V115.164H118.782V113.4H128.466V115.164H124.596V126H122.652ZM128.981 126V117.126H130.799V118.17H131.087C131.231 117.798 131.459 117.528 131.771 117.36C132.095 117.18 132.491 117.09 132.959 117.09H134.021V118.764H132.887C132.287 118.764 131.795 118.932 131.411 119.268C131.027 119.592 130.835 120.096 130.835 120.78V126H128.981ZM138.45 126.252C137.814 126.252 137.244 126.144 136.74 125.928C136.248 125.712 135.852 125.394 135.552 124.974C135.264 124.554 135.12 124.044 135.12 123.444C135.12 122.832 135.264 122.328 135.552 121.932C135.852 121.524 136.254 121.218 136.758 121.014C137.274 120.81 137.856 120.708 138.504 120.708H141.204V120.132C141.204 119.616 141.048 119.202 140.736 118.89C140.424 118.578 139.944 118.422 139.296 118.422C138.66 118.422 138.174 118.572 137.838 118.872C137.502 119.172 137.28 119.562 137.172 120.042L135.444 119.484C135.588 119.004 135.816 118.572 136.128 118.188C136.452 117.792 136.878 117.474 137.406 117.234C137.934 116.994 138.57 116.874 139.314 116.874C140.466 116.874 141.372 117.168 142.032 117.756C142.692 118.344 143.022 119.178 143.022 120.258V123.912C143.022 124.272 143.19 124.452 143.526 124.452H144.282V126H142.896C142.476 126 142.134 125.892 141.87 125.676C141.606 125.46 141.474 125.166 141.474 124.794V124.74H141.204C141.108 124.92 140.964 125.13 140.772 125.37C140.58 125.61 140.298 125.82 139.926 126C139.554 126.168 139.062 126.252 138.45 126.252ZM138.72 124.722C139.464 124.722 140.064 124.512 140.52 124.092C140.976 123.66 141.204 123.072 141.204 122.328V122.148H138.612C138.12 122.148 137.724 122.256 137.424 122.472C137.124 122.676 136.974 122.982 136.974 123.39C136.974 123.798 137.13 124.122 137.442 124.362C137.754 124.602 138.18 124.722 138.72 124.722ZM149.996 126.252C149.144 126.252 148.37 126.072 147.674 125.712C146.99 125.352 146.444 124.83 146.036 124.146C145.64 123.462 145.442 122.64 145.442 121.68V121.446C145.442 120.486 145.64 119.67 146.036 118.998C146.444 118.314 146.99 117.792 147.674 117.432C148.37 117.06 149.144 116.874 149.996 116.874C150.848 116.874 151.574 117.03 152.174 117.342C152.774 117.654 153.254 118.068 153.614 118.584C153.986 119.1 154.226 119.67 154.334 120.294L152.534 120.672C152.474 120.276 152.348 119.916 152.156 119.592C151.964 119.268 151.694 119.01 151.346 118.818C150.998 118.626 150.56 118.53 150.032 118.53C149.516 118.53 149.048 118.65 148.628 118.89C148.22 119.118 147.896 119.454 147.656 119.898C147.416 120.33 147.296 120.858 147.296 121.482V121.644C147.296 122.268 147.416 122.802 147.656 123.246C147.896 123.69 148.22 124.026 148.628 124.254C149.048 124.482 149.516 124.596 150.032 124.596C150.812 124.596 151.406 124.398 151.814 124.002C152.222 123.594 152.48 123.078 152.588 122.454L154.388 122.868C154.244 123.48 153.986 124.044 153.614 124.56C153.254 125.076 152.774 125.49 152.174 125.802C151.574 126.102 150.848 126.252 149.996 126.252ZM156.526 126V113.4H158.38V120.582H158.668L162.16 117.126H164.626L160.144 121.428L164.77 126H162.322L158.668 122.31H158.38V126H156.526ZM166.44 126V117.126H168.294V126H166.44ZM167.376 115.92C167.016 115.92 166.71 115.806 166.458 115.578C166.218 115.338 166.098 115.032 166.098 114.66C166.098 114.288 166.218 113.988 166.458 113.76C166.71 113.52 167.016 113.4 167.376 113.4C167.748 113.4 168.054 113.52 168.294 113.76C168.534 113.988 168.654 114.288 168.654 114.66C168.654 115.032 168.534 115.338 168.294 115.578C168.054 115.806 167.748 115.92 167.376 115.92ZM171.046 126V117.126H172.864V118.458H173.152C173.32 118.098 173.62 117.762 174.052 117.45C174.484 117.138 175.126 116.982 175.978 116.982C176.65 116.982 177.244 117.132 177.76 117.432C178.288 117.732 178.702 118.158 179.002 118.71C179.302 119.25 179.452 119.904 179.452 120.672V126H177.598V120.816C177.598 120.048 177.406 119.484 177.022 119.124C176.638 118.752 176.11 118.566 175.438 118.566C174.67 118.566 174.052 118.818 173.584 119.322C173.128 119.826 172.9 120.558 172.9 121.518V126H171.046ZM181.688 121.608V121.338C181.688 120.402 181.874 119.604 182.246 118.944C182.63 118.284 183.134 117.774 183.758 117.414C184.382 117.054 185.066 116.874 185.81 116.874C186.674 116.874 187.334 117.036 187.79 117.36C188.258 117.684 188.6 118.032 188.816 118.404H189.104V117.126H190.904V127.818C190.904 128.358 190.742 128.79 190.418 129.114C190.106 129.438 189.674 129.6 189.122 129.6H183.146V127.98H188.546C188.894 127.98 189.068 127.8 189.068 127.44V124.614H188.78C188.648 124.83 188.462 125.052 188.222 125.28C187.982 125.508 187.664 125.694 187.268 125.838C186.884 125.982 186.398 126.054 185.81 126.054C185.066 126.054 184.376 125.88 183.74 125.532C183.116 125.172 182.618 124.662 182.246 124.002C181.874 123.33 181.688 122.532 181.688 121.608ZM186.314 124.434C187.118 124.434 187.778 124.182 188.294 123.678C188.822 123.162 189.086 122.454 189.086 121.554V121.392C189.086 120.468 188.828 119.76 188.312 119.268C187.796 118.764 187.13 118.512 186.314 118.512C185.522 118.512 184.862 118.764 184.334 119.268C183.818 119.76 183.56 120.468 183.56 121.392V121.554C183.56 122.454 183.818 123.162 184.334 123.678C184.862 124.182 185.522 124.434 186.314 124.434Z" fill="#1877F3"/>
<circle opacity="0.5" cx="75" cy="63" r="35" fill="#E9F2FF"/>
<path d="M88.6012 61.6057C88.6568 61.1614 88.6568 60.7727 88.6568 60.3284C88.6568 56.7935 87.2525 53.4034 84.753 50.9038C82.2534 48.4042 78.8633 47 75.3284 47C71.7935 47 68.4034 48.4042 65.9038 50.9038C63.4042 53.4034 62 56.7935 62 60.3284C62 60.7727 62 61.2169 62.0555 61.6057V61.7723C63.1662 72.3239 75.3284 79.7656 75.3284 79.7656C75.3284 79.7656 87.4905 72.2129 88.5457 61.8278L88.6012 61.6057Z" stroke="#1877F3" stroke-width="2.88181" stroke-miterlimit="10" stroke-linecap="round" stroke-linejoin="round"/>
<path d="M75.3283 66.9926C79.0088 66.9926 81.9925 64.0089 81.9925 60.3284C81.9925 56.6478 79.0088 53.6642 75.3283 53.6642C71.6477 53.6642 68.6641 56.6478 68.6641 60.3284C68.6641 64.0089 71.6477 66.9926 75.3283 66.9926Z" stroke="#1877F3" stroke-width="2.88181" stroke-miterlimit="10" stroke-linecap="round" stroke-linejoin="round"/>
</svg>
