<svg width="345" height="224" viewBox="0 0 345 224" fill="none" xmlns="http://www.w3.org/2000/svg">
<rect width="345" height="224" fill="white"/>
<circle opacity="0.5" cx="73" cy="60" r="35" fill="#E9F2FF"/>
<path d="M39.064 147.2V157H43.026C44.706 157 45.952 156.034 45.952 154.382C45.952 153.15 45.14 152.394 44.244 152.17V152.002C45.154 151.75 45.924 151.022 45.924 149.79C45.924 148.152 44.706 147.2 43.04 147.2H39.064ZM40.212 148.25H42.942C44.076 148.25 44.818 148.894 44.818 149.874C44.818 150.896 44.118 151.554 42.97 151.554H40.212V148.25ZM40.212 152.604H42.956C44.146 152.604 44.832 153.248 44.832 154.284C44.832 155.278 44.118 155.95 42.97 155.95H40.212V152.604ZM47.2426 153.528C47.2426 155.6 48.6566 157.196 50.7846 157.196C52.4926 157.196 53.3326 156.258 53.8226 155.376L52.8846 154.886C52.5066 155.67 51.8906 156.244 50.7706 156.244C49.3986 156.244 48.4466 155.362 48.3626 153.934H53.9486V153.36C53.9486 151.344 52.6046 149.958 50.6446 149.958C48.6706 149.958 47.2426 151.526 47.2426 153.528ZM48.3626 153.052C48.4886 151.708 49.3566 150.91 50.6446 150.91C51.9466 150.91 52.8006 151.694 52.8286 153.052H48.3626ZM55.5383 150.168V157H56.6023V153.486C56.6023 151.862 57.5263 150.994 58.8703 150.994C60.0603 150.994 60.7883 151.624 60.7883 152.954V157H61.8663V152.87C61.8663 150.98 60.6063 150.056 59.1643 150.056C57.7783 150.056 57.1203 150.714 56.7703 151.386H56.5743V150.168H55.5383ZM63.4165 153.584C63.4165 155.684 64.9285 157.196 66.9725 157.196C68.8905 157.196 69.9545 155.922 70.2345 154.564L69.1705 154.354C68.9745 155.362 68.3445 156.216 66.9725 156.216C65.5305 156.216 64.4945 155.138 64.4945 153.584C64.4945 152.044 65.5305 150.966 66.9445 150.966C68.2185 150.966 69.0165 151.75 69.1425 152.814L70.2065 152.604C69.9545 151.12 68.7365 149.972 66.9445 149.972C64.9285 149.972 63.4165 151.484 63.4165 153.584ZM71.8352 147.2V157H72.8992V153.486C72.8992 151.862 73.8232 150.994 75.1672 150.994C76.3572 150.994 77.0852 151.624 77.0852 152.954V157H78.1632V152.87C78.1632 150.98 76.9032 150.056 75.4612 150.056C74.0752 150.056 73.4172 150.714 73.0672 151.386H72.8992V147.2H71.8352ZM80.1613 150.168V157H81.2253V152.772C81.2253 151.596 81.9953 150.98 82.9613 150.98C83.8853 150.98 84.4733 151.526 84.4733 152.394V157H85.5513V152.772C85.5513 151.596 86.2793 150.98 87.2313 150.98C88.1693 150.98 88.7853 151.526 88.7853 152.394V157H89.8633V152.31C89.8633 150.938 88.8273 150.056 87.5393 150.056C86.4753 150.056 85.8033 150.56 85.4673 151.26H85.2713C84.9633 150.574 84.3473 150.056 83.3253 150.056C82.3873 150.056 81.7573 150.462 81.3933 151.092H81.1973V150.168H80.1613ZM91.6121 152.03L92.5501 152.464C92.9421 151.568 93.6561 150.938 94.8881 150.938C96.1201 150.938 96.8201 151.596 96.8201 152.632V152.898L94.1181 153.15C92.5361 153.304 91.5141 153.934 91.5141 155.18C91.5141 156.412 92.5781 157.196 94.0621 157.196C95.5321 157.196 96.3021 156.51 96.6381 155.852H96.8341V157H97.8841V152.688C97.8841 151.05 96.7641 149.972 94.9161 149.972C93.2081 149.972 92.1161 150.966 91.6121 152.03ZM92.5921 155.152C92.5921 154.382 93.3061 154.088 94.2581 154.004L96.8201 153.766V153.906C96.8201 155.32 95.8541 156.286 94.2021 156.286C93.2501 156.286 92.5921 155.894 92.5921 155.152ZM100.926 150.168H99.9035V157H100.968V152.884C100.968 151.75 101.556 151.176 102.564 151.176H103.74V150.14H102.886C101.906 150.14 101.374 150.504 101.122 151.19H100.926V150.168ZM111.623 150.168H110.013L106.317 153.36H106.149V147.2H105.085V157H106.149V154.83L107.689 153.528L110.265 157H111.567L108.473 152.856L111.623 150.168ZM117.294 147.2V157H123.51V155.95H118.442V152.604H123.062V151.568H118.442V148.25H123.454V147.2H117.294ZM125.169 150.168V157H126.233V152.772C126.233 151.596 127.003 150.98 127.969 150.98C128.893 150.98 129.481 151.526 129.481 152.394V157H130.559V152.772C130.559 151.596 131.287 150.98 132.239 150.98C133.177 150.98 133.793 151.526 133.793 152.394V157H134.871V152.31C134.871 150.938 133.835 150.056 132.547 150.056C131.483 150.056 130.811 150.56 130.475 151.26H130.279C129.971 150.574 129.355 150.056 128.333 150.056C127.395 150.056 126.765 150.462 126.401 151.092H126.205V150.168H125.169ZM136.62 152.03L137.558 152.464C137.95 151.568 138.664 150.938 139.896 150.938C141.128 150.938 141.828 151.596 141.828 152.632V152.898L139.126 153.15C137.544 153.304 136.522 153.934 136.522 155.18C136.522 156.412 137.586 157.196 139.07 157.196C140.54 157.196 141.31 156.51 141.646 155.852H141.842V157H142.892V152.688C142.892 151.05 141.772 149.972 139.924 149.972C138.216 149.972 137.124 150.966 136.62 152.03ZM137.6 155.152C137.6 154.382 138.314 154.088 139.266 154.004L141.828 153.766V153.906C141.828 155.32 140.862 156.286 139.21 156.286C138.258 156.286 137.6 155.894 137.6 155.152ZM144.519 148.04C144.519 148.558 144.925 148.95 145.443 148.95C145.961 148.95 146.367 148.558 146.367 148.04C146.367 147.522 145.961 147.13 145.443 147.13C144.925 147.13 144.519 147.522 144.519 148.04ZM145.975 150.168H144.911V157H145.975V150.168ZM149.134 147.2H148.07V157H149.134V147.2ZM155.589 150.168V157H156.653V152.772C156.653 151.596 157.423 150.98 158.389 150.98C159.313 150.98 159.901 151.526 159.901 152.394V157H160.979V152.772C160.979 151.596 161.707 150.98 162.659 150.98C163.597 150.98 164.213 151.526 164.213 152.394V157H165.291V152.31C165.291 150.938 164.255 150.056 162.967 150.056C161.903 150.056 161.231 150.56 160.895 151.26H160.699C160.391 150.574 159.775 150.056 158.753 150.056C157.815 150.056 157.185 150.462 156.821 151.092H156.625V150.168H155.589ZM167.04 152.03L167.978 152.464C168.37 151.568 169.084 150.938 170.316 150.938C171.548 150.938 172.248 151.596 172.248 152.632V152.898L169.546 153.15C167.964 153.304 166.942 153.934 166.942 155.18C166.942 156.412 168.006 157.196 169.49 157.196C170.96 157.196 171.73 156.51 172.066 155.852H172.262V157H173.312V152.688C173.312 151.05 172.192 149.972 170.344 149.972C168.636 149.972 167.544 150.966 167.04 152.03ZM168.02 155.152C168.02 154.382 168.734 154.088 169.686 154.004L172.248 153.766V153.906C172.248 155.32 171.282 156.286 169.63 156.286C168.678 156.286 168.02 155.894 168.02 155.152ZM181.869 150.168H180.259L176.563 153.36H176.395V147.2H175.331V157H176.395V154.83L177.935 153.528L180.511 157H181.813L178.719 152.856L181.869 150.168ZM182.157 153.528C182.157 155.6 183.571 157.196 185.699 157.196C187.407 157.196 188.247 156.258 188.737 155.376L187.799 154.886C187.421 155.67 186.805 156.244 185.685 156.244C184.313 156.244 183.361 155.362 183.277 153.934H188.863V153.36C188.863 151.344 187.519 149.958 185.559 149.958C183.585 149.958 182.157 151.526 182.157 153.528ZM183.277 153.052C183.403 151.708 184.271 150.91 185.559 150.91C186.861 150.91 187.715 151.694 187.743 153.052H183.277ZM190.23 151.946C190.23 153.234 191.252 153.71 192.75 153.92L193.394 154.018C194.29 154.144 195.144 154.27 195.144 155.026C195.144 155.768 194.388 156.258 193.268 156.258C192.036 156.258 191.112 155.6 190.664 154.466L189.698 154.956C190.202 156.034 191.308 157.196 193.24 157.196C195.018 157.196 196.222 156.314 196.222 154.998C196.222 153.682 195.102 153.276 193.52 153.038L192.876 152.94C192.036 152.814 191.294 152.688 191.294 151.932C191.294 151.246 191.938 150.882 192.82 150.882C193.744 150.882 194.64 151.316 195.368 152.338L196.194 151.778C195.158 150.518 194.178 149.972 192.806 149.972C191.406 149.972 190.23 150.686 190.23 151.946ZM201.315 150.168V151.106H203.387V155.922C203.387 156.58 203.807 157 204.437 157H206.243V156.062H204.829C204.577 156.062 204.465 155.936 204.465 155.656V151.106H206.635V150.168H204.465V147.704H203.387V150.168H201.315ZM208.144 147.2V157H209.208V153.486C209.208 151.862 210.132 150.994 211.476 150.994C212.666 150.994 213.394 151.624 213.394 152.954V157H214.472V152.87C214.472 150.98 213.212 150.056 211.77 150.056C210.384 150.056 209.726 150.714 209.376 151.386H209.208V147.2H208.144ZM216.022 153.528C216.022 155.6 217.436 157.196 219.564 157.196C221.272 157.196 222.112 156.258 222.602 155.376L221.664 154.886C221.286 155.67 220.67 156.244 219.55 156.244C218.178 156.244 217.226 155.362 217.142 153.934H222.728V153.36C222.728 151.344 221.384 149.958 219.424 149.958C217.45 149.958 216.022 151.526 216.022 153.528ZM217.142 153.052C217.268 151.708 218.136 150.91 219.424 150.91C220.726 150.91 221.58 151.694 221.608 153.052H217.142ZM227.825 150.168V151.106H229.897V155.922C229.897 156.58 230.317 157 230.947 157H232.753V156.062H231.339C231.087 156.062 230.975 155.936 230.975 155.656V151.106H233.145V150.168H230.975V147.704H229.897V150.168H227.825ZM234.137 153.584C234.137 155.698 235.579 157.196 237.623 157.196C239.653 157.196 241.095 155.698 241.095 153.584C241.095 151.47 239.653 149.972 237.623 149.972C235.579 149.972 234.137 151.47 234.137 153.584ZM235.201 153.584C235.201 152.016 236.167 150.966 237.623 150.966C239.065 150.966 240.031 151.988 240.031 153.584C240.031 155.18 239.065 156.216 237.623 156.216C236.167 156.216 235.201 155.208 235.201 153.584ZM242.299 153.584C242.299 155.698 243.741 157.196 245.785 157.196C247.815 157.196 249.257 155.698 249.257 153.584C249.257 151.47 247.815 149.972 245.785 149.972C243.741 149.972 242.299 151.47 242.299 153.584ZM243.363 153.584C243.363 152.016 244.329 150.966 245.785 150.966C247.227 150.966 248.193 151.988 248.193 153.584C248.193 155.18 247.227 156.216 245.785 156.216C244.329 156.216 243.363 155.208 243.363 153.584ZM251.973 147.2H250.909V157H251.973V147.2ZM253.928 151.946C253.928 153.234 254.95 153.71 256.448 153.92L257.092 154.018C257.988 154.144 258.842 154.27 258.842 155.026C258.842 155.768 258.086 156.258 256.966 156.258C255.734 156.258 254.81 155.6 254.362 154.466L253.396 154.956C253.9 156.034 255.006 157.196 256.938 157.196C258.716 157.196 259.92 156.314 259.92 154.998C259.92 153.682 258.8 153.276 257.218 153.038L256.574 152.94C255.734 152.814 254.992 152.688 254.992 151.932C254.992 151.246 255.636 150.882 256.518 150.882C257.442 150.882 258.338 151.316 259.066 152.338L259.892 151.778C258.856 150.518 257.876 149.972 256.504 149.972C255.104 149.972 253.928 150.686 253.928 151.946ZM271.06 150.168L268.778 155.642H268.61L266.328 150.168H265.166L268.134 157.098L266.93 159.8H268.092L272.222 150.168H271.06ZM273.034 153.584C273.034 155.698 274.476 157.196 276.52 157.196C278.55 157.196 279.992 155.698 279.992 153.584C279.992 151.47 278.55 149.972 276.52 149.972C274.476 149.972 273.034 151.47 273.034 153.584ZM274.098 153.584C274.098 152.016 275.064 150.966 276.52 150.966C277.962 150.966 278.928 151.988 278.928 153.584C278.928 155.18 277.962 156.216 276.52 156.216C275.064 156.216 274.098 155.208 274.098 153.584ZM287.888 157V150.168H286.81V153.682C286.81 155.306 285.886 156.174 284.542 156.174C283.352 156.174 282.624 155.544 282.624 154.214V150.168H281.56V154.312C281.56 156.202 282.806 157.126 284.248 157.126C285.634 157.126 286.292 156.454 286.642 155.782H286.838V157H287.888ZM39.05 172.168V179H40.114V175.486C40.114 173.862 41.038 172.994 42.382 172.994C43.572 172.994 44.3 173.624 44.3 174.954V179H45.378V174.87C45.378 172.98 44.118 172.056 42.676 172.056C41.29 172.056 40.632 172.714 40.282 173.386H40.086V172.168H39.05ZM46.9282 175.528C46.9282 177.6 48.3422 179.196 50.4702 179.196C52.1782 179.196 53.0182 178.258 53.5082 177.376L52.5702 176.886C52.1922 177.67 51.5762 178.244 50.4562 178.244C49.0842 178.244 48.1322 177.362 48.0482 175.934H53.6342V175.36C53.6342 173.344 52.2902 171.958 50.3302 171.958C48.3562 171.958 46.9282 173.526 46.9282 175.528ZM48.0482 175.052C48.1742 173.708 49.0422 172.91 50.3302 172.91C51.6322 172.91 52.4862 173.694 52.5142 175.052H48.0482ZM54.7758 175.528C54.7758 177.6 56.1898 179.196 58.3178 179.196C60.0258 179.196 60.8658 178.258 61.3558 177.376L60.4178 176.886C60.0398 177.67 59.4238 178.244 58.3038 178.244C56.9318 178.244 55.9798 177.362 55.8958 175.934H61.4818V175.36C61.4818 173.344 60.1378 171.958 58.1778 171.958C56.2038 171.958 54.7758 173.526 54.7758 175.528ZM55.8958 175.052C56.0218 173.708 56.8898 172.91 58.1778 172.91C59.4798 172.91 60.3338 173.694 60.3618 175.052H55.8958ZM69.5815 169.2H68.5175V173.33H68.3495C67.9575 172.658 67.2715 171.972 65.8575 171.972C64.0375 171.972 62.6235 173.442 62.6235 175.584C62.6235 177.726 64.0375 179.196 65.8575 179.196C67.2715 179.196 67.9575 178.51 68.3495 177.824H68.5455V179H69.5815V169.2ZM66.1095 172.938C67.5515 172.938 68.5175 173.96 68.5175 175.584C68.5175 177.194 67.5515 178.216 66.1095 178.216C64.6955 178.216 63.7015 177.236 63.7015 175.584C63.7015 173.918 64.6955 172.938 66.1095 172.938ZM75.9061 173.946C75.9061 175.234 76.9281 175.71 78.4261 175.92L79.0701 176.018C79.9661 176.144 80.8201 176.27 80.8201 177.026C80.8201 177.768 80.0641 178.258 78.9441 178.258C77.7121 178.258 76.7881 177.6 76.3401 176.466L75.3741 176.956C75.8781 178.034 76.9841 179.196 78.9161 179.196C80.6941 179.196 81.8981 178.314 81.8981 176.998C81.8981 175.682 80.7781 175.276 79.1961 175.038L78.5521 174.94C77.7121 174.814 76.9701 174.688 76.9701 173.932C76.9701 173.246 77.6141 172.882 78.4961 172.882C79.4201 172.882 80.3161 173.316 81.0441 174.338L81.8701 173.778C80.8341 172.518 79.8541 171.972 78.4821 171.972C77.0821 171.972 75.9061 172.686 75.9061 173.946ZM83.0916 170.04C83.0916 170.558 83.4976 170.95 84.0156 170.95C84.5336 170.95 84.9396 170.558 84.9396 170.04C84.9396 169.522 84.5336 169.13 84.0156 169.13C83.4976 169.13 83.0916 169.522 83.0916 170.04ZM84.5476 172.168H83.4836V179H84.5476V172.168ZM86.6418 172.168V179H87.7058V174.772C87.7058 173.596 88.4758 172.98 89.4418 172.98C90.3658 172.98 90.9538 173.526 90.9538 174.394V179H92.0318V174.772C92.0318 173.596 92.7598 172.98 93.7118 172.98C94.6498 172.98 95.2658 173.526 95.2658 174.394V179H96.3438V174.31C96.3438 172.938 95.3078 172.056 94.0198 172.056C92.9558 172.056 92.2838 172.56 91.9478 173.26H91.7518C91.4438 172.574 90.8278 172.056 89.8058 172.056C88.8678 172.056 88.2378 172.462 87.8738 173.092H87.6778V172.168H86.6418ZM98.3586 181.8H99.4226V177.838H99.5906C99.9826 178.51 100.669 179.196 102.083 179.196C103.903 179.196 105.317 177.726 105.317 175.584C105.317 173.442 103.903 171.972 102.083 171.972C100.669 171.972 99.9826 172.658 99.5906 173.344H99.3946V172.168H98.3586V181.8ZM101.831 178.23C100.389 178.23 99.4226 177.208 99.4226 175.584C99.4226 173.974 100.389 172.938 101.831 172.938C103.259 172.938 104.239 173.932 104.239 175.584C104.239 177.25 103.259 178.23 101.831 178.23ZM108.036 169.2H106.972V179H108.036V169.2ZM109.682 175.528C109.682 177.6 111.096 179.196 113.224 179.196C114.932 179.196 115.772 178.258 116.262 177.376L115.324 176.886C114.946 177.67 114.33 178.244 113.21 178.244C111.838 178.244 110.886 177.362 110.802 175.934H116.388V175.36C116.388 173.344 115.044 171.958 113.084 171.958C111.11 171.958 109.682 173.526 109.682 175.528ZM110.802 175.052C110.928 173.708 111.796 172.91 113.084 172.91C114.386 172.91 115.24 173.694 115.268 175.052H110.802Z" fill="#242426"/>
<path d="M39.314 126V113.4H42.968L45.722 124.704H46.01L48.764 113.4H52.418V126H50.528V114.768H50.24L47.504 126H44.228L41.492 114.768H41.204V126H39.314ZM57.8544 126.252C57.2184 126.252 56.6484 126.144 56.1444 125.928C55.6524 125.712 55.2564 125.394 54.9564 124.974C54.6684 124.554 54.5244 124.044 54.5244 123.444C54.5244 122.832 54.6684 122.328 54.9564 121.932C55.2564 121.524 55.6584 121.218 56.1624 121.014C56.6784 120.81 57.2604 120.708 57.9084 120.708H60.6084V120.132C60.6084 119.616 60.4524 119.202 60.1404 118.89C59.8284 118.578 59.3484 118.422 58.7004 118.422C58.0644 118.422 57.5784 118.572 57.2424 118.872C56.9064 119.172 56.6844 119.562 56.5764 120.042L54.8484 119.484C54.9924 119.004 55.2204 118.572 55.5324 118.188C55.8564 117.792 56.2824 117.474 56.8104 117.234C57.3384 116.994 57.9744 116.874 58.7184 116.874C59.8704 116.874 60.7764 117.168 61.4364 117.756C62.0964 118.344 62.4264 119.178 62.4264 120.258V123.912C62.4264 124.272 62.5944 124.452 62.9304 124.452H63.6864V126H62.3004C61.8804 126 61.5384 125.892 61.2744 125.676C61.0104 125.46 60.8784 125.166 60.8784 124.794V124.74H60.6084C60.5124 124.92 60.3684 125.13 60.1764 125.37C59.9844 125.61 59.7024 125.82 59.3304 126C58.9584 126.168 58.4664 126.252 57.8544 126.252ZM58.1244 124.722C58.8684 124.722 59.4684 124.512 59.9244 124.092C60.3804 123.66 60.6084 123.072 60.6084 122.328V122.148H58.0164C57.5244 122.148 57.1284 122.256 56.8284 122.472C56.5284 122.676 56.3784 122.982 56.3784 123.39C56.3784 123.798 56.5344 124.122 56.8464 124.362C57.1584 124.602 57.5844 124.722 58.1244 124.722ZM65.4891 126V117.126H67.3431V126H65.4891ZM66.4251 115.92C66.0651 115.92 65.7591 115.806 65.5071 115.578C65.2671 115.338 65.1471 115.032 65.1471 114.66C65.1471 114.288 65.2671 113.988 65.5071 113.76C65.7591 113.52 66.0651 113.4 66.4251 113.4C66.7971 113.4 67.1031 113.52 67.3431 113.76C67.5831 113.988 67.7031 114.288 67.7031 114.66C67.7031 115.032 67.5831 115.338 67.3431 115.578C67.1031 115.806 66.7971 115.92 66.4251 115.92ZM70.0946 126V113.4H71.9486V126H70.0946ZM83.5179 126.252C82.5699 126.252 81.7299 126.084 80.9979 125.748C80.2659 125.412 79.6899 124.92 79.2699 124.272C78.8619 123.612 78.6579 122.814 78.6579 121.878V121.428H80.5839V121.878C80.5839 122.766 80.8479 123.432 81.3759 123.876C81.9159 124.32 82.6299 124.542 83.5179 124.542C84.4179 124.542 85.0959 124.356 85.5519 123.984C86.0079 123.6 86.2359 123.108 86.2359 122.508C86.2359 122.112 86.1279 121.788 85.9119 121.536C85.6959 121.284 85.3899 121.086 84.9939 120.942C84.5979 120.786 84.1239 120.642 83.5719 120.51L82.9059 120.348C82.1019 120.156 81.3999 119.922 80.7999 119.646C80.2119 119.358 79.7559 118.98 79.4319 118.512C79.1079 118.044 78.9459 117.444 78.9459 116.712C78.9459 115.968 79.1259 115.332 79.4859 114.804C79.8579 114.276 80.3679 113.868 81.0159 113.58C81.6639 113.292 82.4259 113.148 83.3019 113.148C84.1779 113.148 84.9579 113.298 85.6419 113.598C86.3379 113.898 86.8839 114.342 87.2799 114.93C87.6759 115.518 87.8739 116.256 87.8739 117.144V117.792H85.9479V117.144C85.9479 116.604 85.8339 116.166 85.6059 115.83C85.3899 115.494 85.0839 115.248 84.6879 115.092C84.2919 114.936 83.8299 114.858 83.3019 114.858C82.5339 114.858 81.9339 115.02 81.5019 115.344C81.0819 115.656 80.8719 116.094 80.8719 116.658C80.8719 117.042 80.9619 117.36 81.1419 117.612C81.3339 117.852 81.6099 118.05 81.9699 118.206C82.3299 118.362 82.7799 118.5 83.3199 118.62L83.9859 118.782C84.8019 118.962 85.5219 119.196 86.1459 119.484C86.7699 119.76 87.2619 120.138 87.6219 120.618C87.9819 121.098 88.1619 121.716 88.1619 122.472C88.1619 123.228 87.9699 123.888 87.5859 124.452C87.2139 125.016 86.6799 125.46 85.9839 125.784C85.2879 126.096 84.4659 126.252 83.5179 126.252ZM93.6587 126.162C92.9867 126.162 92.3867 126.012 91.8587 125.712C91.3307 125.412 90.9167 124.986 90.6167 124.434C90.3167 123.882 90.1667 123.222 90.1667 122.454V117.126H92.0207V122.328C92.0207 123.096 92.2127 123.666 92.5967 124.038C92.9807 124.398 93.5147 124.578 94.1987 124.578C94.9547 124.578 95.5607 124.326 96.0167 123.822C96.4847 123.306 96.7187 122.568 96.7187 121.608V117.126H98.5727V126H96.7547V124.668H96.4667C96.2987 125.028 95.9987 125.37 95.5667 125.694C95.1347 126.006 94.4987 126.162 93.6587 126.162ZM101.313 129.6V117.126H103.131V118.404H103.419C103.647 118.008 103.989 117.654 104.445 117.342C104.913 117.03 105.579 116.874 106.443 116.874C107.187 116.874 107.865 117.054 108.477 117.414C109.101 117.774 109.599 118.296 109.971 118.98C110.355 119.652 110.547 120.468 110.547 121.428V121.698C110.547 122.658 110.361 123.48 109.989 124.164C109.617 124.836 109.119 125.352 108.495 125.712C107.871 126.072 107.187 126.252 106.443 126.252C105.867 126.252 105.381 126.18 104.985 126.036C104.589 125.892 104.271 125.712 104.031 125.496C103.791 125.268 103.599 125.034 103.455 124.794H103.167V129.6H101.313ZM105.903 124.632C106.719 124.632 107.385 124.374 107.901 123.858C108.417 123.342 108.675 122.604 108.675 121.644V121.482C108.675 120.534 108.411 119.802 107.883 119.286C107.367 118.77 106.707 118.512 105.903 118.512C105.111 118.512 104.451 118.77 103.923 119.286C103.407 119.802 103.149 120.534 103.149 121.482V121.644C103.149 122.604 103.407 123.342 103.923 123.858C104.451 124.374 105.111 124.632 105.903 124.632ZM112.845 129.6V117.126H114.663V118.404H114.951C115.179 118.008 115.521 117.654 115.977 117.342C116.445 117.03 117.111 116.874 117.975 116.874C118.719 116.874 119.397 117.054 120.009 117.414C120.633 117.774 121.131 118.296 121.503 118.98C121.887 119.652 122.079 120.468 122.079 121.428V121.698C122.079 122.658 121.893 123.48 121.521 124.164C121.149 124.836 120.651 125.352 120.027 125.712C119.403 126.072 118.719 126.252 117.975 126.252C117.399 126.252 116.913 126.18 116.517 126.036C116.121 125.892 115.803 125.712 115.563 125.496C115.323 125.268 115.131 125.034 114.987 124.794H114.699V129.6H112.845ZM117.435 124.632C118.251 124.632 118.917 124.374 119.433 123.858C119.949 123.342 120.207 122.604 120.207 121.644V121.482C120.207 120.534 119.943 119.802 119.415 119.286C118.899 118.77 118.239 118.512 117.435 118.512C116.643 118.512 115.983 118.77 115.455 119.286C114.939 119.802 114.681 120.534 114.681 121.482V121.644C114.681 122.604 114.939 123.342 115.455 123.858C115.983 124.374 116.643 124.632 117.435 124.632ZM128.534 126.252C127.646 126.252 126.854 126.072 126.158 125.712C125.474 125.34 124.934 124.812 124.538 124.128C124.142 123.444 123.944 122.634 123.944 121.698V121.428C123.944 120.492 124.142 119.688 124.538 119.016C124.934 118.332 125.474 117.804 126.158 117.432C126.854 117.06 127.646 116.874 128.534 116.874C129.422 116.874 130.214 117.06 130.91 117.432C131.606 117.804 132.152 118.332 132.548 119.016C132.944 119.688 133.142 120.492 133.142 121.428V121.698C133.142 122.634 132.944 123.444 132.548 124.128C132.152 124.812 131.606 125.34 130.91 125.712C130.214 126.072 129.422 126.252 128.534 126.252ZM128.534 124.596C129.35 124.596 130.01 124.338 130.514 123.822C131.03 123.294 131.288 122.568 131.288 121.644V121.482C131.288 120.558 131.036 119.838 130.532 119.322C130.028 118.794 129.362 118.53 128.534 118.53C127.73 118.53 127.07 118.794 126.554 119.322C126.05 119.838 125.798 120.558 125.798 121.482V121.644C125.798 122.568 126.05 123.294 126.554 123.822C127.07 124.338 127.73 124.596 128.534 124.596ZM135.45 126V117.126H137.268V118.17H137.556C137.7 117.798 137.928 117.528 138.24 117.36C138.564 117.18 138.96 117.09 139.428 117.09H140.49V118.764H139.356C138.756 118.764 138.264 118.932 137.88 119.268C137.496 119.592 137.304 120.096 137.304 120.78V126H135.45ZM145.741 126C145.201 126 144.769 125.838 144.445 125.514C144.133 125.19 143.977 124.758 143.977 124.218V118.692H141.529V117.126H143.977V114.192H145.831V117.126H148.477V118.692H145.831V123.894C145.831 124.254 145.999 124.434 146.335 124.434H148.189V126H145.741Z" fill="#1877F3"/>
<g clip-path="url(#clip0_47_324)">
<path d="M67.6273 59.7453C66.2455 58.3327 65.4844 56.4755 65.4844 54.5156C65.4844 50.3714 68.8558 47 73 47C77.1442 47 80.5156 50.3714 80.5156 54.5156C80.5156 58.0529 78.0589 61.0269 74.7623 61.822C74.412 62.4323 73.7542 62.8438 73 62.8438C71.8783 62.8438 70.9688 61.9342 70.9688 60.8125C70.9688 59.6908 71.8783 58.7812 73 58.7812C73.7216 58.7812 74.3548 59.1579 74.7153 59.7251C76.9018 59.0032 78.4844 56.941 78.4844 54.5156C78.4844 51.4916 76.0241 49.0312 73 49.0312C69.9759 49.0312 67.5156 51.4916 67.5156 54.5156C67.5156 55.9413 68.071 57.2941 69.0793 58.325C69.4715 58.7259 69.4646 59.3688 69.0637 59.7612C68.6626 60.1533 68.0197 60.1464 67.6273 59.7453ZM83.9376 63.5045C83.0759 62.7473 82.0309 62.0931 80.8314 61.5601C80.3188 61.3324 79.7188 61.5633 79.4909 62.0759C79.2632 62.5885 79.494 63.1887 80.0066 63.4164C81.0181 63.8659 81.8897 64.4088 82.5969 65.0303C83.4687 65.7964 83.9688 66.9057 83.9688 68.0742V69.9531C83.9688 70.5131 83.5131 70.9688 82.9531 70.9688H63.0469C62.4869 70.9688 62.0312 70.5131 62.0312 69.9531V68.0742C62.0312 66.9057 62.5313 65.7964 63.4031 65.0303C64.2543 64.2823 65.7918 63.255 68.2823 62.6081C68.8252 62.4671 69.1509 61.9124 69.0099 61.3697C68.8689 60.8268 68.3144 60.5011 67.7715 60.6421C64.895 61.3893 63.0792 62.6111 62.0624 63.5045C60.7516 64.656 60 66.3217 60 68.0742V69.9531C60 71.6333 61.3667 73 63.0469 73H82.9531C84.6333 73 86 71.6333 86 69.9531V68.0742C86 66.3217 85.2484 64.656 83.9376 63.5045Z" fill="#1877F3"/>
</g>
<defs>
<clipPath id="clip0_47_324">
<rect width="26" height="26" fill="white" transform="translate(60 47)"/>
</clipPath>
</defs>
</svg>
