<svg width="48" height="48" viewBox="0 0 48 48" fill="none" xmlns="http://www.w3.org/2000/svg">
<path d="M40.5 7.08997H7.5C6.39543 7.08997 5.5 7.9854 5.5 9.08997V38.91C5.5 40.0145 6.39543 40.91 7.5 40.91H40.5C41.6046 40.91 42.5 40.0145 42.5 38.91V9.08997C42.5 7.9854 41.6046 7.08997 40.5 7.08997Z" stroke="#202020" stroke-width="2" stroke-linecap="round" stroke-linejoin="round"/>
<path d="M9.59717 35.6499C17.6992 16.3799 28.7772 28.0139 36.0172 35.8339C36.5752 36.4369 38.4632 34.4279 38.4632 34.4279" stroke="#202020" stroke-width="2" stroke-linecap="round" stroke-linejoin="round"/>
<path d="M31.7662 21.068C33.3557 21.068 34.6442 19.7795 34.6442 18.19C34.6442 16.6005 33.3557 15.312 31.7662 15.312C30.1767 15.312 28.8882 16.6005 28.8882 18.19C28.8882 19.7795 30.1767 21.068 31.7662 21.068Z" stroke="#202020" stroke-width="2" stroke-linecap="round" stroke-linejoin="round"/>
</svg>
