<svg width="169" height="44" viewBox="0 0 169 44" fill="none" xmlns="http://www.w3.org/2000/svg">
<path d="M50.7314 31V14.1H56.6464L59.5677 28.8271H60.0023L62.9235 14.1H68.8385V31H65.7483V16.4419H65.3137L62.4165 31H57.1534L54.2563 16.4419H53.8217V31H50.7314ZM75.836 31.338C74.983 31.338 74.2184 31.1931 73.5424 30.9034C72.8664 30.5976 72.3273 30.163 71.9249 29.5997C71.5386 29.0203 71.3454 28.3201 71.3454 27.4993C71.3454 26.6784 71.5386 25.9944 71.9249 25.4471C72.3273 24.8838 72.8745 24.4653 73.5666 24.1917C74.2748 23.902 75.0795 23.7571 75.9809 23.7571H79.2643V23.0811C79.2643 22.5178 79.0873 22.0591 78.7332 21.705C78.3791 21.3348 77.8157 21.1497 77.0432 21.1497C76.2867 21.1497 75.7233 21.3268 75.3532 21.6809C74.983 22.0189 74.7415 22.4615 74.6289 23.0087L71.8283 22.0671C72.0214 21.4555 72.3273 20.9002 72.7457 20.4013C73.1803 19.8862 73.7517 19.4758 74.4599 19.17C75.1842 18.8481 76.0613 18.6871 77.0914 18.6871C78.6688 18.6871 79.9162 19.0815 80.8336 19.8701C81.751 20.6588 82.2097 21.8016 82.2097 23.2984V27.7649C82.2097 28.2477 82.4351 28.4891 82.8857 28.4891H83.8514V31H81.8234C81.2279 31 80.737 30.8551 80.3507 30.5654C79.9644 30.2757 79.7713 29.8894 79.7713 29.4066V29.3824H79.3126C79.2482 29.5756 79.1033 29.8331 78.878 30.155C78.6527 30.4608 78.2986 30.7344 77.8157 30.9759C77.3329 31.2173 76.673 31.338 75.836 31.338ZM76.3672 28.8754C77.2202 28.8754 77.9123 28.642 78.4434 28.1753C78.9907 27.6924 79.2643 27.0567 79.2643 26.268V26.0266H76.1982C75.6348 26.0266 75.1922 26.1473 74.8703 26.3887C74.5484 26.6301 74.3874 26.9681 74.3874 27.4027C74.3874 27.8373 74.5564 28.1914 74.8944 28.465C75.2324 28.7386 75.7233 28.8754 76.3672 28.8754ZM86.0756 31V19.0251H89.1176V31H86.0756ZM87.5966 17.6249C87.0494 17.6249 86.5826 17.4478 86.1963 17.0937C85.8261 16.7396 85.641 16.2729 85.641 15.6934C85.641 15.114 85.8261 14.6472 86.1963 14.2931C86.5826 13.939 87.0494 13.762 87.5966 13.762C88.1599 13.762 88.6267 13.939 88.9969 14.2931C89.3671 14.6472 89.5522 15.114 89.5522 15.6934C89.5522 16.2729 89.3671 16.7396 88.9969 17.0937C88.6267 17.4478 88.1599 17.6249 87.5966 17.6249ZM92.4885 31V14.1H95.5305V31H92.4885ZM98.8049 31V14.1H104.72L107.641 28.8271H108.076L110.997 14.1H116.912V31H113.822V16.4419H113.387L110.49 31H105.227L102.33 16.4419H101.895V31H98.8049ZM123.91 31.338C123.056 31.338 122.292 31.1931 121.616 30.9034C120.94 30.5976 120.401 30.163 119.998 29.5997C119.612 29.0203 119.419 28.3201 119.419 27.4993C119.419 26.6784 119.612 25.9944 119.998 25.4471C120.401 24.8838 120.948 24.4653 121.64 24.1917C122.348 23.902 123.153 23.7571 124.054 23.7571H127.338V23.0811C127.338 22.5178 127.161 22.0591 126.807 21.705C126.453 21.3348 125.889 21.1497 125.117 21.1497C124.36 21.1497 123.797 21.3268 123.427 21.6809C123.056 22.0189 122.815 22.4615 122.702 23.0087L119.902 22.0671C120.095 21.4555 120.401 20.9002 120.819 20.4013C121.254 19.8862 121.825 19.4758 122.533 19.17C123.258 18.8481 124.135 18.6871 125.165 18.6871C126.742 18.6871 127.99 19.0815 128.907 19.8701C129.825 20.6588 130.283 21.8016 130.283 23.2984V27.7649C130.283 28.2477 130.509 28.4891 130.959 28.4891H131.925V31H129.897C129.301 31 128.811 30.8551 128.424 30.5654C128.038 30.2757 127.845 29.8894 127.845 29.4066V29.3824H127.386C127.322 29.5756 127.177 29.8331 126.952 30.155C126.726 30.4608 126.372 30.7344 125.889 30.9759C125.406 31.2173 124.746 31.338 123.91 31.338ZM124.441 28.8754C125.294 28.8754 125.986 28.642 126.517 28.1753C127.064 27.6924 127.338 27.0567 127.338 26.268V26.0266H124.272C123.708 26.0266 123.266 26.1473 122.944 26.3887C122.622 26.6301 122.461 26.9681 122.461 27.4027C122.461 27.8373 122.63 28.1914 122.968 28.465C123.306 28.7386 123.797 28.8754 124.441 28.8754ZM134.149 31V14.1H137.191V23.4433H137.626L141.585 19.0251H145.545L140.016 24.8194L145.738 31H141.827L137.626 26.2439H137.191V31H134.149ZM152.502 31.338C151.311 31.338 150.257 31.0885 149.339 30.5896C148.438 30.0745 147.73 29.3583 147.215 28.4409C146.716 27.5073 146.466 26.4129 146.466 25.1574V24.8677C146.466 23.6123 146.716 22.5259 147.215 21.6084C147.714 20.6749 148.414 19.9587 149.315 19.4597C150.217 18.9447 151.263 18.6871 152.454 18.6871C153.629 18.6871 154.651 18.9527 155.52 19.4839C156.389 19.9989 157.065 20.7232 157.548 21.6567C158.031 22.5741 158.272 23.6445 158.272 24.8677V25.9059H149.557C149.589 26.7267 149.895 27.3947 150.474 27.9097C151.053 28.4248 151.762 28.6823 152.599 28.6823C153.452 28.6823 154.079 28.4972 154.482 28.127C154.884 27.7568 155.19 27.3464 155.399 26.8957L157.886 28.1994C157.661 28.6179 157.331 29.0766 156.896 29.5756C156.478 30.0584 155.914 30.4769 155.206 30.831C154.498 31.169 153.597 31.338 152.502 31.338ZM149.581 23.6364H155.182C155.118 22.9443 154.836 22.389 154.337 21.9706C153.854 21.5521 153.218 21.3429 152.43 21.3429C151.609 21.3429 150.957 21.5521 150.474 21.9706C149.991 22.389 149.693 22.9443 149.581 23.6364ZM160.98 31V19.0251H163.973V20.3771H164.408C164.585 19.8943 164.875 19.5402 165.277 19.3149C165.696 19.0895 166.179 18.9769 166.726 18.9769H168.174V21.6809H166.677C165.905 21.6809 165.269 21.8901 164.77 22.3086C164.271 22.711 164.022 23.3387 164.022 24.1917V31H160.98Z" fill="black"/>
<path d="M31.9138 42.0991C37.539 42.0991 42.0991 37.539 42.0991 31.9138C42.0991 26.2886 37.539 21.7285 31.9138 21.7285C26.2886 21.7285 21.7285 26.2886 21.7285 31.9138C21.7285 37.539 26.2886 42.0991 31.9138 42.0991Z" fill="#5EDC89"/>
<path opacity="0.25" d="M31.9137 21.7282C30.4117 21.7208 28.9266 22.0457 27.5648 22.6796C26.2031 23.3135 24.9984 24.2407 24.0371 25.3949C25.9679 23.5958 28.5216 22.6163 31.1603 22.6629C33.799 22.7094 36.3166 23.7784 38.1827 25.6445C40.0488 27.5106 41.1178 30.0282 41.1643 32.6669C41.2109 35.3056 40.2314 37.8593 38.4323 39.7901C40.0605 38.4553 41.2351 36.6488 41.7944 34.619C42.3537 32.5893 42.2702 30.4361 41.5555 28.4557C40.8408 26.4753 39.5299 24.7651 37.8033 23.5604C36.0766 22.3556 34.0191 21.7155 31.9137 21.7282Z" fill="white"/>
<path d="M31.9142 21.7288C34.1188 21.7239 36.2647 22.4391 38.0254 23.7658V8.14844H1.3584V32.5931H21.7968C21.7968 32.3894 21.7289 32.1178 21.7289 31.9141C21.7289 29.2128 22.802 26.6221 24.7121 24.712C26.6222 22.8019 29.2129 21.7288 31.9142 21.7288Z" fill="#FFF4E3"/>
<path opacity="0.14" d="M17.6543 32.593H21.7963C21.7963 32.3893 21.7284 32.1177 21.7284 31.914C21.7276 29.8564 22.35 27.8469 23.5136 26.15C24.6772 24.4531 26.3274 23.1484 28.247 22.4077H27.8396C25.1383 22.4077 22.5476 23.4808 20.6375 25.3909C18.7274 27.301 17.6543 29.8917 17.6543 32.593Z" fill="#000064"/>
<path opacity="0.14" d="M1.3584 8.14844L19.6919 22.1362L38.0254 8.14844V9.16696L17.6548 27.1609L1.3584 11.204V8.14844Z" fill="#000064"/>
<path d="M21.7289 32.5931H1.3584V8.14844H38.0254V23.7658" stroke="#2E4369" stroke-width="1.35804" stroke-miterlimit="10" stroke-linecap="round" stroke-linejoin="round"/>
<path d="M35.9883 29.877L30.5562 35.3092L27.8401 32.5931M1.3584 8.14844L19.6919 22.1362L38.0254 8.14844H1.3584Z" stroke="#2E4369" stroke-width="1.35804" stroke-miterlimit="10" stroke-linecap="round" stroke-linejoin="round"/>
<path d="M31.9138 42.0991C37.539 42.0991 42.0991 37.539 42.0991 31.9138C42.0991 26.2886 37.539 21.7285 31.9138 21.7285C26.2886 21.7285 21.7285 26.2886 21.7285 31.9138C21.7285 37.539 26.2886 42.0991 31.9138 42.0991Z" fill="#3CB265" stroke="#2E4369" stroke-width="1.35804" stroke-miterlimit="10" stroke-linecap="round" stroke-linejoin="round"/>
</svg>
