<svg width="99" height="16" viewBox="0 0 99 16" fill="none" xmlns="http://www.w3.org/2000/svg">
<path d="M0.730156 15V0.999999H5.63016L8.05016 13.2H8.41016L10.8302 0.999999H15.7302V15H13.1702V2.94H12.8102L10.4102 15H6.05016L3.65016 2.94H3.29016V15H0.730156ZM21.5269 15.28C20.8202 15.28 20.1869 15.16 19.6269 14.92C19.0669 14.6667 18.6202 14.3067 18.2869 13.84C17.9669 13.36 17.8069 12.78 17.8069 12.1C17.8069 11.42 17.9669 10.8533 18.2869 10.4C18.6202 9.93333 19.0735 9.58667 19.6469 9.36C20.2335 9.12 20.9002 9 21.6469 9H24.3669V8.44C24.3669 7.97333 24.2202 7.59333 23.9269 7.3C23.6335 6.99333 23.1669 6.84 22.5269 6.84C21.9002 6.84 21.4335 6.98667 21.1269 7.28C20.8202 7.56 20.6202 7.92667 20.5269 8.38L18.2069 7.6C18.3669 7.09333 18.6202 6.63333 18.9669 6.22C19.3269 5.79333 19.8002 5.45333 20.3869 5.2C20.9869 4.93333 21.7135 4.8 22.5669 4.8C23.8735 4.8 24.9069 5.12667 25.6669 5.78C26.4269 6.43333 26.8069 7.38 26.8069 8.62V12.32C26.8069 12.72 26.9935 12.92 27.3669 12.92H28.1669V15H26.4869C25.9935 15 25.5869 14.88 25.2669 14.64C24.9469 14.4 24.7869 14.08 24.7869 13.68V13.66H24.4069C24.3535 13.82 24.2335 14.0333 24.0469 14.3C23.8602 14.5533 23.5669 14.78 23.1669 14.98C22.7669 15.18 22.2202 15.28 21.5269 15.28ZM21.9669 13.24C22.6735 13.24 23.2469 13.0467 23.6869 12.66C24.1402 12.26 24.3669 11.7333 24.3669 11.08V10.88H21.8269C21.3602 10.88 20.9935 10.98 20.7269 11.18C20.4602 11.38 20.3269 11.66 20.3269 12.02C20.3269 12.38 20.4669 12.6733 20.7469 12.9C21.0269 13.1267 21.4335 13.24 21.9669 13.24ZM30.0094 15V5.08H32.5294V15H30.0094ZM31.2694 3.92C30.816 3.92 30.4294 3.77333 30.1094 3.48C29.8027 3.18667 29.6494 2.8 29.6494 2.32C29.6494 1.84 29.8027 1.45333 30.1094 1.16C30.4294 0.866666 30.816 0.719999 31.2694 0.719999C31.736 0.719999 32.1227 0.866666 32.4294 1.16C32.736 1.45333 32.8894 1.84 32.8894 2.32C32.8894 2.8 32.736 3.18667 32.4294 3.48C32.1227 3.77333 31.736 3.92 31.2694 3.92ZM35.3219 15V0.999999H37.8419V15H35.3219ZM40.5544 15V0.999999H45.4544L47.8744 13.2H48.2344L50.6544 0.999999H55.5544V15H52.9944V2.94H52.6344L50.2344 15H45.8744L43.4744 2.94H43.1144V15H40.5544ZM61.3511 15.28C60.6444 15.28 60.0111 15.16 59.4511 14.92C58.8911 14.6667 58.4444 14.3067 58.1111 13.84C57.7911 13.36 57.6311 12.78 57.6311 12.1C57.6311 11.42 57.7911 10.8533 58.1111 10.4C58.4444 9.93333 58.8978 9.58667 59.4711 9.36C60.0578 9.12 60.7244 9 61.4711 9H64.1911V8.44C64.1911 7.97333 64.0444 7.59333 63.7511 7.3C63.4578 6.99333 62.9911 6.84 62.3511 6.84C61.7244 6.84 61.2578 6.98667 60.9511 7.28C60.6444 7.56 60.4444 7.92667 60.3511 8.38L58.0311 7.6C58.1911 7.09333 58.4444 6.63333 58.7911 6.22C59.1511 5.79333 59.6244 5.45333 60.2111 5.2C60.8111 4.93333 61.5378 4.8 62.3911 4.8C63.6978 4.8 64.7311 5.12667 65.4911 5.78C66.2511 6.43333 66.6311 7.38 66.6311 8.62V12.32C66.6311 12.72 66.8178 12.92 67.1911 12.92H67.9911V15H66.3111C65.8178 15 65.4111 14.88 65.0911 14.64C64.7711 14.4 64.6111 14.08 64.6111 13.68V13.66H64.2311C64.1778 13.82 64.0578 14.0333 63.8711 14.3C63.6844 14.5533 63.3911 14.78 62.9911 14.98C62.5911 15.18 62.0444 15.28 61.3511 15.28ZM61.7911 13.24C62.4978 13.24 63.0711 13.0467 63.5111 12.66C63.9644 12.26 64.1911 11.7333 64.1911 11.08V10.88H61.6511C61.1844 10.88 60.8178 10.98 60.5511 11.18C60.2844 11.38 60.1511 11.66 60.1511 12.02C60.1511 12.38 60.2911 12.6733 60.5711 12.9C60.8511 13.1267 61.2578 13.24 61.7911 13.24ZM69.8336 15V0.999999H72.3536V8.74H72.7136L75.9936 5.08H79.2736L74.6936 9.88L79.4336 15H76.1936L72.7136 11.06H72.3536V15H69.8336ZM85.0372 15.28C84.0505 15.28 83.1772 15.0733 82.4172 14.66C81.6705 14.2333 81.0839 13.64 80.6572 12.88C80.2439 12.1067 80.0372 11.2 80.0372 10.16V9.92C80.0372 8.88 80.2439 7.98 80.6572 7.22C81.0705 6.44667 81.6505 5.85333 82.3972 5.44C83.1439 5.01333 84.0105 4.8 84.9972 4.8C85.9705 4.8 86.8172 5.02 87.5372 5.46C88.2572 5.88667 88.8172 6.48667 89.2172 7.26C89.6172 8.02 89.8172 8.90667 89.8172 9.92V10.78H82.5972C82.6239 11.46 82.8772 12.0133 83.3572 12.44C83.8372 12.8667 84.4239 13.08 85.1172 13.08C85.8239 13.08 86.3439 12.9267 86.6772 12.62C87.0105 12.3133 87.2639 11.9733 87.4372 11.6L89.4972 12.68C89.3105 13.0267 89.0372 13.4067 88.6772 13.82C88.3305 14.22 87.8639 14.5667 87.2772 14.86C86.6905 15.14 85.9439 15.28 85.0372 15.28ZM82.6172 8.9H87.2572C87.2039 8.32667 86.9705 7.86667 86.5572 7.52C86.1572 7.17333 85.6305 7 84.9772 7C84.2972 7 83.7572 7.17333 83.3572 7.52C82.9572 7.86667 82.7105 8.32667 82.6172 8.9ZM92.0602 15V5.08H94.5402V6.2H94.9002C95.0468 5.8 95.2868 5.50667 95.6202 5.32C95.9668 5.13333 96.3668 5.04 96.8202 5.04H98.0202V7.28H96.7802C96.1402 7.28 95.6135 7.45333 95.2002 7.8C94.7868 8.13333 94.5802 8.65333 94.5802 9.36V15H92.0602Z" fill="black"/>
</svg>
